<svg width="50" height="43" viewBox="0 0 50 43" fill="none" xmlns="http://www.w3.org/2000/svg">
<path fill-rule="evenodd" clip-rule="evenodd" d="M22.029 32.2959L34.7806 19.291L34.8081 19.2609C35.5252 18.4751 35.9167 17.4351 35.8985 16.3593C35.8803 15.2835 35.4538 14.258 34.7106 13.498L34.7064 13.4938C33.9614 12.736 32.9586 12.3033 31.909 12.2848C30.8594 12.2663 29.8426 12.6634 29.0725 13.3944L29.0431 13.4224L19.1612 23.5006L14.7592 19.0111C13.9972 18.235 12.9657 17.8002 11.8914 17.8002C10.8171 17.8002 9.78551 18.235 9.02359 19.0111L1.11849 27.0732L1.09104 27.1033C0.373866 27.8892 -0.0176126 28.9292 0.00060872 30.005C0.0188299 31.0807 0.445278 32.1062 1.18851 32.8662L1.19268 32.8704C1.93768 33.6282 2.94053 34.061 3.99011 34.0794C5.03969 34.0979 6.05648 33.7008 6.82656 32.9698L6.85604 32.9418L11.8914 27.8065L16.2934 32.2959C17.0553 33.072 18.0869 33.5069 19.1612 33.5069C20.2355 33.5069 21.267 33.072 22.029 32.2959Z" fill="url(#paint0_linear_802_8790)"/>
<foreignObject x="15.2177" y="-0.462189" width="33.988" height="33.988"><div xmlns="http://www.w3.org/1999/xhtml" style="backdrop-filter:blur(3.21px);clip-path:url(#bgblur_0_802_8790_clip_path);height:100%;width:100%"></div></foreignObject><g filter="url(#filter0_d_802_8790)" data-figma-bg-blur-radius="6.41055">
<path d="M40.704 7.25433C41.1807 7.12661 41.6169 7.56279 41.4891 8.03946L36.849 25.3568C36.7213 25.8334 36.1254 25.9931 35.7765 25.6441L23.0993 12.967C22.7504 12.618 22.91 12.0222 23.3867 11.8945L40.704 7.25433Z" fill="url(#paint1_linear_802_8790)" shape-rendering="crispEdges"/>
<path d="M40.5383 6.63471C41.4914 6.37955 42.3636 7.2519 42.1086 8.20498L37.4682 25.5222C37.2127 26.4755 36.0206 26.7953 35.3227 26.0974L22.6459 13.4206C21.948 12.7227 22.2677 11.5305 23.2211 11.2751L40.5383 6.63471Z" stroke="url(#paint2_linear_802_8790)" stroke-width="1.28211" shape-rendering="crispEdges"/>
</g>
<defs>
<filter id="filter0_d_802_8790" x="15.2177" y="-0.462189" width="33.988" height="33.988" filterUnits="userSpaceOnUse" color-interpolation-filters="sRGB">
<feFlood flood-opacity="0" result="BackgroundImageFix"/>
<feColorMatrix in="SourceAlpha" type="matrix" values="0 0 0 0 0 0 0 0 0 0 0 0 0 0 0 0 0 0 127 0" result="hardAlpha"/>
<feOffset dx="1.28211"/>
<feGaussianBlur stdDeviation="2.56422"/>
<feComposite in2="hardAlpha" operator="out"/>
<feColorMatrix type="matrix" values="0 0 0 0 0 0 0 0 0 0 0 0 0 0 0 0 0 0 0.48 0"/>
<feBlend mode="normal" in2="BackgroundImageFix" result="effect1_dropShadow_802_8790"/>
<feBlend mode="normal" in="SourceGraphic" in2="effect1_dropShadow_802_8790" result="shape"/>
</filter>
<clipPath id="bgblur_0_802_8790_clip_path" transform="translate(-15.2177 0.462189)"><path d="M40.704 7.25433C41.1807 7.12661 41.6169 7.56279 41.4891 8.03946L36.849 25.3568C36.7213 25.8334 36.1254 25.9931 35.7765 25.6441L23.0993 12.967C22.7504 12.618 22.91 12.0222 23.3867 11.8945L40.704 7.25433Z"/>
</clipPath><linearGradient id="paint0_linear_802_8790" x1="40.9474" y1="7.69557" x2="-0.514168" y2="33.2457" gradientUnits="userSpaceOnUse">
<stop offset="0.351341" stop-color="#F9CC56"/>
<stop offset="0.767047" stop-color="#FF1A51"/>
</linearGradient>
<linearGradient id="paint1_linear_802_8790" x1="12.9864" y1="14.3701" x2="50.0023" y2="15.1927" gradientUnits="userSpaceOnUse">
<stop stop-color="white" stop-opacity="0.2"/>
<stop offset="1" stop-color="white" stop-opacity="0.5"/>
</linearGradient>
<linearGradient id="paint2_linear_802_8790" x1="30.2605" y1="31.6442" x2="33.1395" y2="-0.847503" gradientUnits="userSpaceOnUse">
<stop stop-color="white" stop-opacity="0"/>
<stop offset="1" stop-color="white"/>
</linearGradient>
</defs>
</svg>
