<svg width="40" height="40" viewBox="0 0 40 40" fill="none" xmlns="http://www.w3.org/2000/svg">
<path d="M6.11981 18.1172C6.11981 13.9168 6.11981 11.8166 6.93726 10.2123C7.65631 8.80104 8.80367 7.65369 10.2149 6.93464C11.8192 6.11719 13.9194 6.11719 18.1198 6.11719H21.9032C26.1035 6.11719 28.2037 6.11719 29.8081 6.93464C31.2193 7.65369 32.3666 8.80104 33.0857 10.2123C33.9031 11.8166 33.9031 13.9168 33.9031 18.1172V21.9005C33.9031 26.1009 33.9031 28.2011 33.0857 29.8054C32.3666 31.2167 31.2193 32.364 29.8081 33.0831C28.2037 33.9005 26.1035 33.9005 21.9031 33.9005H18.1198C13.9194 33.9005 11.8192 33.9005 10.2149 33.0831C8.80367 32.364 7.65631 31.2167 6.93726 29.8054C6.11981 28.2011 6.11981 26.1009 6.11981 21.9005V18.1172Z" fill="url(#paint0_radial_1256_180)"/>
<path d="M6.11981 18.1172C6.11981 13.9168 6.11981 11.8166 6.93726 10.2123C7.65631 8.80104 8.80367 7.65369 10.2149 6.93464C11.8192 6.11719 13.9194 6.11719 18.1198 6.11719H21.9032C26.1035 6.11719 28.2037 6.11719 29.8081 6.93464C31.2193 7.65369 32.3666 8.80104 33.0857 10.2123C33.9031 11.8166 33.9031 13.9168 33.9031 18.1172V21.9005C33.9031 26.1009 33.9031 28.2011 33.0857 29.8054C32.3666 31.2167 31.2193 32.364 29.8081 33.0831C28.2037 33.9005 26.1035 33.9005 21.9031 33.9005H18.1198C13.9194 33.9005 11.8192 33.9005 10.2149 33.0831C8.80367 32.364 7.65631 31.2167 6.93726 29.8054C6.11981 28.2011 6.11981 26.1009 6.11981 21.9005V18.1172Z" fill="url(#paint1_radial_1256_180)"/>
<path d="M20.0015 10.2773C17.361 10.2773 17.0297 10.2889 15.9926 10.3361C14.9576 10.3835 14.2511 10.5473 13.6329 10.7878C12.9935 11.0361 12.4511 11.3683 11.9107 11.9089C11.3699 12.4492 11.0377 12.9917 10.7885 13.6309C10.5475 14.2493 10.3834 14.956 10.3369 15.9906C10.2905 17.0276 10.2783 17.3592 10.2783 19.9996C10.2783 22.64 10.2901 22.9703 10.3371 24.0074C10.3847 25.0424 10.5485 25.7488 10.7887 26.367C11.0373 27.0065 11.3694 27.5489 11.9101 28.0893C12.4502 28.6301 12.9927 28.9631 13.6317 29.2114C14.2503 29.4518 14.957 29.6157 15.9918 29.6631C17.0289 29.7102 17.36 29.7218 20.0002 29.7218C22.6409 29.7218 22.9712 29.7102 24.0083 29.6631C25.0433 29.6157 25.7506 29.4518 26.3692 29.2114C27.0084 28.9631 27.55 28.6301 28.0902 28.0893C28.631 27.5489 28.9632 27.0065 29.2123 26.3672C29.4514 25.7488 29.6154 25.0422 29.664 24.0076C29.7106 22.9705 29.7228 22.64 29.7228 19.9996C29.7228 17.3592 29.7106 17.0278 29.664 15.9908C29.6154 14.9558 29.4514 14.2493 29.2123 13.6311C28.9632 12.9917 28.631 12.4492 28.0902 11.9089C27.5494 11.3681 27.0086 11.0359 26.3686 10.7878C25.7488 10.5473 25.0419 10.3835 24.0069 10.3361C22.9698 10.2889 22.6397 10.2773 19.9984 10.2773H20.0015ZM19.1293 12.0294C19.3881 12.029 19.677 12.0294 20.0015 12.0294C22.5973 12.0294 22.905 12.0387 23.9301 12.0853C24.878 12.1286 25.3925 12.287 25.7352 12.4201C26.1889 12.5963 26.5124 12.8069 26.8525 13.1472C27.1927 13.4875 27.4034 13.8116 27.58 14.2653C27.7131 14.6076 27.8717 15.122 27.9148 16.07C27.9614 17.0949 27.9715 17.4027 27.9715 19.9973C27.9715 22.592 27.9614 22.8998 27.9148 23.9247C27.8715 24.8726 27.7131 25.3871 27.58 25.7294C27.4038 26.1831 27.1927 26.5062 26.8525 26.8462C26.5122 27.1865 26.1891 27.3972 25.7352 27.5734C25.3929 27.7071 24.878 27.865 23.9301 27.9084C22.9052 27.955 22.5973 27.9651 20.0015 27.9651C17.4054 27.9651 17.0977 27.955 16.0728 27.9084C15.1249 27.8646 14.6104 27.7063 14.2675 27.5732C13.8138 27.397 13.4897 27.1863 13.1494 26.846C12.8092 26.5058 12.5985 26.1825 12.4219 25.7286C12.2888 25.3863 12.1302 24.8718 12.0871 23.9239C12.0405 22.899 12.0312 22.5911 12.0312 19.9949C12.0312 17.3987 12.0405 17.0924 12.0871 16.0675C12.1304 15.1196 12.2888 14.6052 12.4219 14.2624C12.5981 13.8087 12.8092 13.4847 13.1494 13.1444C13.4897 12.8041 13.8138 12.5935 14.2675 12.4168C14.6102 12.2832 15.1249 12.1252 16.0728 12.0816C16.9697 12.0411 17.3173 12.029 19.1293 12.0269V12.0294ZM25.1912 13.6437C24.547 13.6437 24.0245 14.1656 24.0245 14.8099C24.0245 15.454 24.547 15.9766 25.1912 15.9766C25.8353 15.9766 26.3578 15.454 26.3578 14.8099C26.3578 14.1658 25.8353 13.6433 25.1912 13.6433V13.6437ZM20.0015 15.0068C17.2442 15.0068 15.0086 17.2423 15.0086 19.9996C15.0086 22.7568 17.2442 24.9913 20.0015 24.9913C22.7587 24.9913 24.9935 22.7568 24.9935 19.9996C24.9935 17.2423 22.7585 15.0068 20.0013 15.0068H20.0015ZM20.0015 16.7588C21.7912 16.7588 23.2422 18.2097 23.2422 19.9996C23.2422 21.7893 21.7912 23.2403 20.0015 23.2403C18.2115 23.2403 16.7607 21.7893 16.7607 19.9996C16.7607 18.2097 18.2115 16.7588 20.0015 16.7588Z" fill="#F8F8FF"/>
<defs>
<radialGradient id="paint0_radial_1256_180" cx="0" cy="0" r="1" gradientUnits="userSpaceOnUse" gradientTransform="translate(13.4998 36.0404) rotate(-90) scale(27.5353 25.61)">
<stop stop-color="#FFDD55"/>
<stop offset="0.1" stop-color="#FFDD55"/>
<stop offset="0.5" stop-color="#FF543E"/>
<stop offset="1" stop-color="#C837AB"/>
</radialGradient>
<radialGradient id="paint1_radial_1256_180" cx="0" cy="0" r="1" gradientTransform="matrix(2.41586 12.069 -49.7478 9.96367 1.46596 8.11865)" gradientUnits="userSpaceOnUse">
<stop stop-color="#3771C8"/>
<stop offset="0.128" stop-color="#3771C8"/>
<stop offset="1" stop-color="#6600FF" stop-opacity="0"/>
</radialGradient>
</defs>
</svg>
