<svg width="40" height="40" viewBox="0 0 40 40" fill="none" xmlns="http://www.w3.org/2000/svg">
<path d="M21.9695 19.7425L24.8938 23.085L28.8259 25.5979L29.5115 19.7631L28.8259 14.0586L24.8183 16.2663L21.9695 19.7425Z" fill="#00832D"/>
<path d="M4.99994 25.0558V30.0267C4.99994 31.1631 5.92041 32.0836 7.05685 32.0836H12.0277L13.0562 28.3263L12.0277 25.0558L8.61667 24.0273L4.99994 25.0558Z" fill="#0066DA"/>
<path d="M12.0277 7.40039L4.99994 14.4282L8.61667 15.4566L12.0277 14.4282L13.039 11.2022L12.0277 7.40039Z" fill="#E94235"/>
<path d="M12.0277 14.4277H4.99994V25.0551H12.0277V14.4277Z" fill="#2684FC"/>
<path d="M33.3168 10.3758L28.8259 14.0577V25.5969L33.3373 29.2959C34.0127 29.8239 35 29.3422 35 28.4834V11.1711C35 10.3021 33.9904 9.82558 33.3168 10.3758ZM21.9695 19.7416V25.0553H12.0278V32.083H26.7689C27.9054 32.083 28.8259 31.1626 28.8259 30.0261V25.5969L21.9695 19.7416Z" fill="#00AC47"/>
<path d="M26.769 7.40039H12.0278V14.4282H21.9695V19.7418L28.8259 14.0613V9.4573C28.8259 8.32086 27.9054 7.40039 26.769 7.40039Z" fill="#FFBA00"/>
</svg>
