<svg width="331" height="207" viewBox="0 0 331 207" fill="none" xmlns="http://www.w3.org/2000/svg">
<g filter="url(#filter0_d_802_9878)">
<rect x="52" y="36" width="292" height="201.97" rx="12" fill="#F8F8FF" shape-rendering="crispEdges"/>
<rect x="52.5" y="36.5" width="291" height="200.97" rx="11.5" stroke="black" stroke-opacity="0.1" shape-rendering="crispEdges"/>
<g clip-path="url(#clip0_802_9878)">
<mask id="mask0_802_9878" style="mask-type:luminance" maskUnits="userSpaceOnUse" x="77" y="60" width="54" height="53">
<path d="M77.874 60.002H130.726V112.854H77.874V60.002Z" fill="white"/>
</mask>
<g mask="url(#mask0_802_9878)">
<path d="M130.727 86.4256C130.727 89.8961 130.044 93.3327 128.716 96.539C127.387 99.7454 125.441 102.659 122.987 105.113C120.533 107.567 117.619 109.513 114.413 110.842C111.207 112.17 107.77 112.853 104.3 112.853C100.829 112.853 97.3926 112.17 94.1862 110.842C90.9799 109.513 88.0666 107.567 85.6125 105.113C83.1585 102.659 81.2119 99.7454 79.8837 96.539C78.5556 93.3327 77.8721 89.8961 77.8721 86.4256C77.8721 79.4166 80.6564 72.6946 85.6125 67.7385C90.5687 62.7824 97.2906 59.998 104.3 59.998C111.309 59.998 118.031 62.7824 122.987 67.7385C127.943 72.6946 130.727 79.4166 130.727 86.4256Z" fill="url(#paint0_linear_802_9878)"/>
<path d="M96.5168 95.9655C95.9949 102.06 98.9182 106.245 104.303 106.245C109.687 106.245 112.61 102.06 112.088 95.9655C111.57 89.8678 108.405 86.4258 104.303 86.4258C100.2 86.4258 97.0354 89.8678 96.5168 95.9655Z" fill="url(#paint1_linear_802_9878)"/>
<path d="M89.4375 78.1678C89.4375 75.4327 91.284 73.2129 93.5666 73.2129C95.8491 73.2129 97.6956 75.4327 97.6956 78.1678C97.6956 80.9061 95.8491 83.1226 93.5666 83.1226C91.284 83.1226 89.4375 80.9061 89.4375 78.1678ZM110.909 78.1678C110.909 75.4327 112.758 73.2129 115.038 73.2129C117.32 73.2129 119.167 75.4327 119.167 78.1678C119.167 80.9061 117.32 83.1226 115.038 83.1226C112.758 83.1226 110.909 80.9061 110.909 78.1678Z" fill="url(#paint2_linear_802_9878)"/>
<g filter="url(#filter1_i_802_9878)">
<path d="M89.4375 78.1678C89.4375 75.4327 91.284 73.2129 93.5666 73.2129C95.8491 73.2129 97.6956 75.4327 97.6956 78.1678C97.6956 80.9061 95.8491 83.1226 93.5666 83.1226C91.284 83.1226 89.4375 80.9061 89.4375 78.1678ZM110.909 78.1678C110.909 75.4327 112.758 73.2129 115.038 73.2129C117.32 73.2129 119.167 75.4327 119.167 78.1678C119.167 80.9061 117.32 83.1226 115.038 83.1226C112.758 83.1226 110.909 80.9061 110.909 78.1678Z" fill="black"/>
</g>
<path d="M92.6793 75.0857C93.2938 75.2244 93.6373 75.9181 93.4457 76.6382C93.2574 77.355 92.6067 77.8273 91.9923 77.6853C91.3779 77.5466 91.0343 76.8529 91.2259 76.1328C91.4142 75.4193 92.0649 74.9436 92.6793 75.0857ZM114.676 75.2938C115.353 75.449 115.736 76.2187 115.528 77.0114C115.316 77.8141 114.596 78.3327 113.909 78.1808C113.232 78.0288 112.846 77.2559 113.057 76.4631C113.265 75.6604 113.989 75.1418 114.676 75.2938Z" fill="#4E506A"/>
<g filter="url(#filter2_d_802_9878)">
<path d="M114.436 65.6024C114.607 65.5859 114.779 65.5793 114.954 65.5793C116.563 65.5793 118.224 66.2532 119.486 67.4357C119.627 67.5698 119.733 67.7356 119.796 67.9192C119.859 68.1028 119.878 68.2989 119.85 68.4911C119.821 68.6832 119.748 68.8658 119.634 69.0235C119.521 69.1813 119.372 69.3097 119.199 69.3979C118.991 69.4988 118.757 69.5338 118.529 69.4984C118.3 69.463 118.088 69.3588 117.921 69.1997C117.012 68.3408 115.754 67.8784 114.644 67.9775C114.258 68.0067 113.884 68.12 113.548 68.3095C113.211 68.499 112.92 68.76 112.695 69.0741C112.604 69.1966 112.49 69.2997 112.36 69.3774C112.229 69.4552 112.084 69.506 111.933 69.5269C111.782 69.5479 111.629 69.5384 111.482 69.4993C111.334 69.4601 111.197 69.3919 111.076 69.2988C110.829 69.1032 110.667 68.8193 110.625 68.5068C110.583 68.1943 110.665 67.8778 110.852 67.624C111.268 67.0484 111.804 66.5697 112.422 66.2207C113.041 65.8718 113.728 65.6608 114.436 65.6024ZM89.1163 67.4357C90.3418 66.2697 91.9571 65.609 93.6484 65.5793C94.4468 65.5617 95.2375 65.7387 95.9522 66.0949C96.667 66.4511 97.2843 66.9759 97.751 67.624C97.938 67.8773 98.0197 68.1931 97.979 68.5053C97.9384 68.8175 97.7785 69.1018 97.533 69.2988C97.4122 69.3925 97.2739 69.4612 97.1263 69.5007C96.9786 69.5402 96.8245 69.5498 96.673 69.5289C96.5216 69.5079 96.3759 69.4569 96.2445 69.3788C96.113 69.3007 95.9986 69.1971 95.9078 69.0741C95.6825 68.7606 95.3913 68.5002 95.0546 68.3113C94.7179 68.1224 94.3439 68.0096 93.9589 67.9808C92.8523 67.8784 91.5904 68.3441 90.682 69.1997C90.5708 69.305 90.4393 69.3868 90.2956 69.44C90.152 69.4932 89.999 69.5169 89.8459 69.5095C89.6929 69.5021 89.5429 69.4638 89.405 69.3969C89.2672 69.33 89.1442 69.236 89.0436 69.1204C88.8355 68.8847 88.7268 68.5775 88.7404 68.2634C88.7539 67.9493 88.8887 67.6526 89.1163 67.4357Z" fill="black"/>
</g>
<path d="M114.436 65.6024C114.607 65.5859 114.779 65.5793 114.954 65.5793C116.563 65.5793 118.224 66.2532 119.486 67.4357C119.627 67.5698 119.733 67.7356 119.796 67.9192C119.859 68.1028 119.878 68.2989 119.85 68.4911C119.821 68.6832 119.748 68.8658 119.634 69.0235C119.521 69.1813 119.372 69.3097 119.199 69.3979C118.991 69.4988 118.757 69.5338 118.529 69.4984C118.3 69.463 118.088 69.3588 117.921 69.1997C117.012 68.3408 115.754 67.8784 114.644 67.9775C114.258 68.0067 113.884 68.12 113.548 68.3095C113.211 68.499 112.92 68.76 112.695 69.0741C112.604 69.1966 112.49 69.2997 112.36 69.3774C112.229 69.4552 112.084 69.506 111.933 69.5269C111.782 69.5479 111.629 69.5384 111.482 69.4993C111.334 69.4601 111.197 69.3919 111.076 69.2988C110.829 69.1032 110.667 68.8193 110.625 68.5068C110.583 68.1943 110.665 67.8778 110.852 67.624C111.268 67.0484 111.804 66.5697 112.422 66.2207C113.041 65.8718 113.728 65.6608 114.436 65.6024ZM89.1163 67.4357C90.3418 66.2697 91.9571 65.609 93.6484 65.5793C94.4468 65.5617 95.2375 65.7387 95.9522 66.0949C96.667 66.4511 97.2843 66.9759 97.751 67.624C97.938 67.8773 98.0197 68.1931 97.979 68.5053C97.9384 68.8175 97.7785 69.1018 97.533 69.2988C97.4122 69.3925 97.2739 69.4612 97.1263 69.5007C96.9786 69.5402 96.8245 69.5498 96.673 69.5289C96.5216 69.5079 96.3759 69.4569 96.2445 69.3788C96.113 69.3007 95.9986 69.1971 95.9078 69.0741C95.6825 68.7606 95.3913 68.5002 95.0546 68.3113C94.7179 68.1224 94.3439 68.0096 93.9589 67.9808C92.8523 67.8784 91.5904 68.3441 90.682 69.1997C90.5708 69.305 90.4393 69.3868 90.2956 69.44C90.152 69.4932 89.999 69.5169 89.8459 69.5095C89.6929 69.5021 89.5429 69.4638 89.405 69.3969C89.2672 69.33 89.1442 69.236 89.0436 69.1204C88.8355 68.8847 88.7268 68.5775 88.7404 68.2634C88.7539 67.9493 88.8887 67.6526 89.1163 67.4357Z" fill="url(#paint3_linear_802_9878)"/>
</g>
</g>
<path d="M82.8124 126.854C82.2772 126.854 81.7627 126.768 81.2687 126.596C80.7816 126.418 80.4043 126.192 80.1367 125.917L80.4352 125.331C80.689 125.578 81.0286 125.787 81.454 125.958C81.8862 126.123 82.339 126.205 82.8124 126.205C83.2652 126.205 83.6322 126.151 83.9135 126.041C84.2016 125.924 84.4109 125.77 84.5412 125.578C84.6784 125.386 84.747 125.173 84.747 124.94C84.747 124.658 84.6647 124.432 84.5001 124.26C84.3423 124.089 84.133 123.955 83.8723 123.859C83.6116 123.756 83.3235 123.667 83.0079 123.592C82.6923 123.516 82.3767 123.437 82.0611 123.355C81.7455 123.266 81.454 123.149 81.1864 123.005C80.9257 122.861 80.713 122.672 80.5484 122.439C80.3906 122.199 80.3117 121.887 80.3117 121.502C80.3117 121.146 80.4043 120.82 80.5895 120.525C80.7816 120.223 81.0732 119.983 81.4643 119.804C81.8553 119.619 82.3561 119.527 82.9667 119.527C83.3715 119.527 83.7728 119.585 84.1708 119.702C84.5687 119.811 84.9117 119.966 85.1998 120.165L84.9426 120.772C84.6338 120.566 84.3045 120.415 83.9546 120.319C83.6116 120.223 83.2789 120.175 82.9564 120.175C82.5242 120.175 82.1675 120.233 81.8862 120.35C81.6049 120.467 81.3956 120.624 81.2584 120.823C81.1281 121.015 81.0629 121.235 81.0629 121.482C81.0629 121.763 81.1418 121.99 81.2996 122.161C81.4643 122.333 81.6769 122.466 81.9376 122.562C82.2052 122.658 82.4968 122.744 82.8124 122.82C83.1279 122.895 83.4401 122.978 83.7488 123.067C84.0644 123.156 84.3526 123.273 84.6133 123.417C84.8808 123.554 85.0935 123.739 85.2513 123.972C85.416 124.206 85.4983 124.511 85.4983 124.888C85.4983 125.238 85.4022 125.564 85.2101 125.866C85.018 126.161 84.723 126.401 84.3251 126.586C83.9341 126.765 83.4298 126.854 82.8124 126.854ZM89.2363 126.843C88.7766 126.843 88.3753 126.758 88.0322 126.586C87.6892 126.415 87.4217 126.157 87.2296 125.814C87.0443 125.471 86.9517 125.043 86.9517 124.528V121.389H87.6824V124.446C87.6824 125.022 87.823 125.458 88.1043 125.753C88.3924 126.041 88.7938 126.185 89.3083 126.185C89.6856 126.185 90.0115 126.109 90.2859 125.958C90.5672 125.801 90.7799 125.574 90.924 125.279C91.0749 124.984 91.1504 124.631 91.1504 124.219V121.389H91.881V126.792H91.1813V125.31L91.2945 125.578C91.1229 125.976 90.8554 126.288 90.4918 126.514C90.135 126.734 89.7165 126.843 89.2363 126.843ZM93.9173 126.792V121.389H94.6171V122.861L94.5451 122.604C94.696 122.192 94.9499 121.88 95.3066 121.667C95.6634 121.448 96.1059 121.338 96.6341 121.338V122.048C96.6067 122.048 96.5792 122.048 96.5518 122.048C96.5244 122.041 96.4969 122.038 96.4695 122.038C95.9 122.038 95.4541 122.213 95.1317 122.562C94.8092 122.905 94.648 123.396 94.648 124.034V126.792H93.9173ZM100.756 126.843C100.29 126.843 99.8677 126.737 99.4904 126.524C99.1131 126.305 98.8112 125.993 98.5848 125.588C98.3653 125.176 98.2555 124.676 98.2555 124.085C98.2555 123.495 98.3653 122.998 98.5848 122.593C98.8044 122.182 99.1028 121.87 99.4801 121.657C99.8575 121.444 100.283 121.338 100.756 121.338C101.271 121.338 101.73 121.454 102.135 121.688C102.547 121.914 102.869 122.237 103.103 122.655C103.336 123.067 103.452 123.544 103.452 124.085C103.452 124.634 103.336 125.115 103.103 125.526C102.869 125.938 102.547 126.26 102.135 126.494C101.73 126.727 101.271 126.843 100.756 126.843ZM97.9674 128.788V121.389H98.6671V123.015L98.5951 124.096L98.698 125.187V128.788H97.9674ZM100.705 126.195C101.089 126.195 101.432 126.109 101.734 125.938C102.036 125.759 102.276 125.512 102.454 125.197C102.633 124.874 102.722 124.504 102.722 124.085C102.722 123.667 102.633 123.3 102.454 122.984C102.276 122.669 102.036 122.422 101.734 122.243C101.432 122.065 101.089 121.976 100.705 121.976C100.321 121.976 99.9741 122.065 99.6654 122.243C99.3635 122.422 99.1234 122.669 98.945 122.984C98.7735 123.3 98.6877 123.667 98.6877 124.085C98.6877 124.504 98.7735 124.874 98.945 125.197C99.1234 125.512 99.3635 125.759 99.6654 125.938C99.9741 126.109 100.321 126.195 100.705 126.195ZM104.942 126.792V121.389H105.642V122.861L105.57 122.604C105.721 122.192 105.974 121.88 106.331 121.667C106.688 121.448 107.13 121.338 107.659 121.338V122.048C107.631 122.048 107.604 122.048 107.576 122.048C107.549 122.041 107.521 122.038 107.494 122.038C106.925 122.038 106.479 122.213 106.156 122.562C105.834 122.905 105.672 123.396 105.672 124.034V126.792H104.942ZM108.992 126.792V121.389H109.723V126.792H108.992ZM109.362 120.196C109.211 120.196 109.084 120.144 108.982 120.041C108.879 119.938 108.827 119.815 108.827 119.671C108.827 119.527 108.879 119.407 108.982 119.311C109.084 119.208 109.211 119.156 109.362 119.156C109.513 119.156 109.64 119.204 109.743 119.3C109.846 119.396 109.897 119.516 109.897 119.66C109.897 119.811 109.846 119.938 109.743 120.041C109.647 120.144 109.52 120.196 109.362 120.196ZM113.207 126.843C112.761 126.843 112.339 126.782 111.941 126.658C111.543 126.528 111.231 126.367 111.004 126.175L111.334 125.598C111.553 125.763 111.834 125.907 112.177 126.03C112.52 126.147 112.881 126.205 113.258 126.205C113.773 126.205 114.143 126.127 114.369 125.969C114.596 125.804 114.709 125.588 114.709 125.32C114.709 125.121 114.644 124.967 114.513 124.857C114.39 124.741 114.225 124.655 114.02 124.6C113.814 124.538 113.584 124.487 113.33 124.446C113.076 124.405 112.822 124.356 112.569 124.302C112.322 124.247 112.095 124.168 111.889 124.065C111.683 123.955 111.515 123.808 111.385 123.622C111.262 123.437 111.2 123.19 111.2 122.881C111.2 122.586 111.282 122.322 111.447 122.089C111.611 121.856 111.852 121.674 112.167 121.544C112.49 121.406 112.881 121.338 113.34 121.338C113.69 121.338 114.04 121.386 114.39 121.482C114.74 121.571 115.028 121.691 115.254 121.842L114.935 122.429C114.695 122.264 114.438 122.147 114.164 122.079C113.889 122.003 113.615 121.966 113.34 121.966C112.853 121.966 112.493 122.051 112.26 122.223C112.033 122.387 111.92 122.6 111.92 122.861C111.92 123.067 111.982 123.228 112.105 123.345C112.236 123.461 112.404 123.554 112.61 123.622C112.822 123.684 113.052 123.736 113.299 123.777C113.553 123.818 113.803 123.869 114.05 123.931C114.304 123.986 114.534 124.065 114.74 124.168C114.953 124.264 115.121 124.405 115.244 124.59C115.374 124.768 115.44 125.005 115.44 125.3C115.44 125.615 115.35 125.89 115.172 126.123C115.001 126.349 114.747 126.528 114.411 126.658C114.081 126.782 113.68 126.843 113.207 126.843ZM119.075 126.843C118.513 126.843 118.019 126.727 117.593 126.494C117.168 126.253 116.835 125.928 116.595 125.516C116.355 125.097 116.235 124.621 116.235 124.085C116.235 123.55 116.348 123.077 116.575 122.665C116.808 122.254 117.123 121.931 117.521 121.698C117.926 121.458 118.379 121.338 118.88 121.338C119.387 121.338 119.837 121.454 120.228 121.688C120.626 121.914 120.938 122.237 121.164 122.655C121.391 123.067 121.504 123.544 121.504 124.085C121.504 124.12 121.5 124.158 121.494 124.199C121.494 124.233 121.494 124.271 121.494 124.312H116.791V123.766H121.103L120.814 123.983C120.814 123.592 120.729 123.245 120.557 122.943C120.392 122.634 120.166 122.394 119.878 122.223C119.59 122.051 119.257 121.966 118.88 121.966C118.509 121.966 118.176 122.051 117.881 122.223C117.586 122.394 117.357 122.634 117.192 122.943C117.027 123.252 116.945 123.605 116.945 124.003V124.116C116.945 124.528 117.034 124.892 117.213 125.207C117.398 125.516 117.652 125.759 117.974 125.938C118.303 126.109 118.677 126.195 119.096 126.195C119.425 126.195 119.73 126.137 120.012 126.02C120.3 125.904 120.547 125.725 120.753 125.485L121.164 125.958C120.924 126.247 120.622 126.466 120.259 126.617C119.902 126.768 119.507 126.843 119.075 126.843ZM125.142 126.843C124.627 126.843 124.164 126.727 123.753 126.494C123.348 126.26 123.029 125.938 122.796 125.526C122.562 125.108 122.446 124.627 122.446 124.085C122.446 123.537 122.562 123.056 122.796 122.645C123.029 122.233 123.348 121.914 123.753 121.688C124.164 121.454 124.627 121.338 125.142 121.338C125.615 121.338 126.037 121.444 126.408 121.657C126.785 121.87 127.083 122.182 127.303 122.593C127.529 122.998 127.643 123.495 127.643 124.085C127.643 124.669 127.533 125.166 127.313 125.578C127.094 125.989 126.795 126.305 126.418 126.524C126.047 126.737 125.622 126.843 125.142 126.843ZM125.193 126.195C125.578 126.195 125.921 126.109 126.222 125.938C126.531 125.759 126.771 125.512 126.943 125.197C127.121 124.874 127.21 124.504 127.21 124.085C127.21 123.66 127.121 123.29 126.943 122.974C126.771 122.658 126.531 122.415 126.222 122.243C125.921 122.065 125.578 121.976 125.193 121.976C124.816 121.976 124.476 122.065 124.175 122.243C123.873 122.415 123.633 122.658 123.454 122.974C123.276 123.29 123.187 123.66 123.187 124.085C123.187 124.504 123.276 124.874 123.454 125.197C123.633 125.512 123.873 125.759 124.175 125.938C124.476 126.109 124.816 126.195 125.193 126.195ZM127.231 126.792V125.166L127.303 124.075L127.2 122.984V119.156H127.931V126.792H127.231Z" fill="#0B1215" fill-opacity="0.8"/>
<g clip-path="url(#clip1_802_9878)">
<path d="M216.426 86.4276C216.426 89.8981 215.743 93.3346 214.415 96.541C213.087 99.7473 211.14 102.661 208.686 105.115C206.232 107.569 203.318 109.515 200.112 110.843C196.906 112.172 193.469 112.855 189.999 112.855C186.528 112.855 183.092 112.172 179.885 110.843C176.679 109.515 173.766 107.569 171.312 105.115C168.858 102.661 166.911 99.7473 165.583 96.541C164.255 93.3346 163.571 89.8981 163.571 86.4276C163.571 79.4185 166.355 72.6966 171.312 67.7405C176.268 62.7843 182.99 60 189.999 60C197.008 60 203.73 62.7843 208.686 67.7405C213.642 72.6966 216.426 79.4185 216.426 86.4276Z" fill="url(#paint4_linear_802_9878)"/>
<path d="M173.484 86.4547C173.484 93.1107 176.807 106.248 190 106.248C203.19 106.248 206.517 93.1107 206.517 86.4547C206.517 85.9295 201.198 83.125 190 83.125C178.802 83.125 173.484 85.9295 173.484 86.4547Z" fill="url(#paint5_linear_802_9878)"/>
<path d="M178.575 101.293C181.231 104.579 184.874 106.248 190.034 106.248C195.197 106.248 198.804 104.579 201.46 101.293C199.64 99.3504 196.178 96.3379 190.034 96.3379C183.89 96.3379 180.398 99.3504 178.575 101.293Z" fill="url(#paint6_linear_802_9878)"/>
<path d="M184.097 73.6903C184.966 74.3113 185.756 75.1933 185.452 76.2933C185.217 77.1323 184.811 77.5121 184.058 77.5155C181.481 77.5551 178.416 78.3611 175.78 79.5403C175.565 79.6361 175.129 79.831 174.683 79.8211C174.274 79.8112 173.854 79.6295 173.603 79.0382C173.382 78.5196 173.362 77.7566 174.515 77.0629C176.315 75.9728 178.667 75.4774 180.821 75.0678C179.466 74.0669 178.013 73.2179 176.477 72.5309C175.066 71.89 175.222 71.0213 175.41 70.5489C175.829 69.5018 177.422 69.9015 178.971 70.6348C180.778 71.4788 182.495 72.5024 184.097 73.6903ZM195.913 73.6903C197.513 72.502 199.228 71.4783 201.033 70.6348C202.586 69.9015 204.171 69.5018 204.594 70.5489C204.782 71.0213 204.938 71.89 203.527 72.5309C201.994 73.2171 200.54 74.0677 199.19 75.0678C201.337 75.474 203.692 75.9728 205.489 77.0629C206.642 77.7566 206.619 78.5163 206.401 79.0382C206.147 79.6328 205.73 79.8112 205.321 79.8211C204.875 79.831 204.439 79.6361 204.224 79.5403C201.591 78.3611 198.526 77.5584 195.953 77.5188C195.2 77.5121 194.793 77.1323 194.559 76.2966C194.258 75.1966 195.044 74.3113 195.913 73.6903Z" fill="#2A3755"/>
</g>
<path d="M179.533 119.588H180.285V126.792H179.533V119.588ZM175.026 126.792H174.265V119.588H175.026V126.792ZM179.606 123.468H174.944V122.799H179.606V123.468ZM185.867 126.792V125.598L185.836 125.403V123.406C185.836 122.947 185.706 122.593 185.445 122.346C185.192 122.099 184.811 121.976 184.303 121.976C183.953 121.976 183.62 122.034 183.305 122.151C182.989 122.267 182.722 122.422 182.502 122.614L182.173 122.068C182.447 121.835 182.777 121.657 183.161 121.533C183.545 121.403 183.95 121.338 184.375 121.338C185.075 121.338 185.613 121.513 185.991 121.863C186.375 122.206 186.567 122.731 186.567 123.437V126.792H185.867ZM184.005 126.843C183.6 126.843 183.247 126.778 182.945 126.648C182.65 126.511 182.423 126.325 182.265 126.092C182.108 125.852 182.029 125.578 182.029 125.269C182.029 124.988 182.094 124.734 182.224 124.507C182.362 124.274 182.581 124.089 182.883 123.952C183.192 123.808 183.603 123.736 184.118 123.736H185.98V124.281H184.138C183.617 124.281 183.253 124.374 183.048 124.559C182.849 124.744 182.749 124.974 182.749 125.248C182.749 125.557 182.869 125.804 183.109 125.989C183.349 126.175 183.686 126.267 184.118 126.267C184.529 126.267 184.883 126.175 185.178 125.989C185.48 125.797 185.699 125.523 185.836 125.166L186.001 125.67C185.864 126.027 185.624 126.312 185.281 126.524C184.945 126.737 184.519 126.843 184.005 126.843ZM191.34 126.843C190.874 126.843 190.452 126.737 190.075 126.524C189.697 126.305 189.395 125.993 189.169 125.588C188.949 125.176 188.84 124.676 188.84 124.085C188.84 123.495 188.949 122.998 189.169 122.593C189.389 122.182 189.687 121.87 190.064 121.657C190.442 121.444 190.867 121.338 191.34 121.338C191.855 121.338 192.315 121.454 192.719 121.688C193.131 121.914 193.453 122.237 193.687 122.655C193.92 123.067 194.037 123.544 194.037 124.085C194.037 124.634 193.92 125.115 193.687 125.526C193.453 125.938 193.131 126.26 192.719 126.494C192.315 126.727 191.855 126.843 191.34 126.843ZM188.552 128.788V121.389H189.251V123.015L189.179 124.096L189.282 125.187V128.788H188.552ZM191.289 126.195C191.673 126.195 192.016 126.109 192.318 125.938C192.62 125.759 192.86 125.512 193.038 125.197C193.217 124.874 193.306 124.504 193.306 124.085C193.306 123.667 193.217 123.3 193.038 122.984C192.86 122.669 192.62 122.422 192.318 122.243C192.016 122.065 191.673 121.976 191.289 121.976C190.905 121.976 190.558 122.065 190.25 122.243C189.948 122.422 189.708 122.669 189.529 122.984C189.358 123.3 189.272 123.667 189.272 124.085C189.272 124.504 189.358 124.874 189.529 125.197C189.708 125.512 189.948 125.759 190.25 125.938C190.558 126.109 190.905 126.195 191.289 126.195ZM198.315 126.843C197.848 126.843 197.426 126.737 197.049 126.524C196.672 126.305 196.37 125.993 196.144 125.588C195.924 125.176 195.814 124.676 195.814 124.085C195.814 123.495 195.924 122.998 196.144 122.593C196.363 122.182 196.661 121.87 197.039 121.657C197.416 121.444 197.842 121.338 198.315 121.338C198.829 121.338 199.289 121.454 199.694 121.688C200.105 121.914 200.428 122.237 200.661 122.655C200.894 123.067 201.011 123.544 201.011 124.085C201.011 124.634 200.894 125.115 200.661 125.526C200.428 125.938 200.105 126.26 199.694 126.494C199.289 126.727 198.829 126.843 198.315 126.843ZM195.526 128.788V121.389H196.226V123.015L196.154 124.096L196.257 125.187V128.788H195.526ZM198.263 126.195C198.648 126.195 198.991 126.109 199.293 125.938C199.594 125.759 199.835 125.512 200.013 125.197C200.191 124.874 200.28 124.504 200.28 124.085C200.28 123.667 200.191 123.3 200.013 122.984C199.835 122.669 199.594 122.422 199.293 122.243C198.991 122.065 198.648 121.976 198.263 121.976C197.879 121.976 197.533 122.065 197.224 122.243C196.922 122.422 196.682 122.669 196.504 122.984C196.332 123.3 196.246 123.667 196.246 124.085C196.246 124.504 196.332 124.874 196.504 125.197C196.682 125.512 196.922 125.759 197.224 125.938C197.533 126.109 197.879 126.195 198.263 126.195ZM202.391 128.84C202.137 128.84 201.894 128.799 201.66 128.716C201.434 128.634 201.238 128.511 201.074 128.346L201.413 127.8C201.551 127.931 201.698 128.03 201.856 128.099C202.02 128.174 202.202 128.212 202.401 128.212C202.641 128.212 202.847 128.144 203.019 128.006C203.197 127.876 203.365 127.643 203.523 127.307L203.873 126.514L203.955 126.401L206.178 121.389H206.898L204.192 127.44C204.041 127.79 203.873 128.068 203.688 128.274C203.509 128.48 203.314 128.624 203.101 128.706C202.888 128.795 202.652 128.84 202.391 128.84ZM203.832 126.946L201.341 121.389H202.103L204.305 126.349L203.832 126.946Z" fill="#0B1215" fill-opacity="0.8"/>
<g clip-path="url(#clip2_802_9878)">
<path d="M302.125 86.4276C302.125 89.8981 301.442 93.3346 300.114 96.541C298.786 99.7473 296.839 102.661 294.385 105.115C291.931 107.569 289.018 109.515 285.811 110.843C282.605 112.172 279.168 112.855 275.698 112.855C272.227 112.855 268.791 112.172 265.584 110.843C262.378 109.515 259.465 107.569 257.011 105.115C254.557 102.661 252.61 99.7473 251.282 96.541C249.954 93.3346 249.27 89.8981 249.27 86.4276C249.27 79.4185 252.055 72.6966 257.011 67.7405C261.967 62.7843 268.689 60 275.698 60C282.707 60 289.429 62.7843 294.385 67.7405C299.341 72.6966 302.125 79.4185 302.125 86.4276Z" fill="url(#paint7_linear_802_9878)"/>
<path d="M266.891 102.168C266.891 102.621 267.202 102.944 267.717 102.944C268.877 102.944 270.479 100.88 275.701 100.88C280.924 100.88 282.529 102.944 283.685 102.944C284.2 102.944 284.511 102.621 284.511 102.168C284.511 100.857 281.739 96.3379 275.701 96.3379C269.663 96.3379 266.891 100.857 266.891 102.168Z" fill="url(#paint8_linear_802_9878)"/>
<path d="M261.161 89.0691C261.161 86.3935 262.842 84.2266 264.906 84.2266C266.978 84.2266 268.652 86.3935 268.652 89.0691C268.652 90.1856 268.355 91.2162 267.866 92.0354C267.646 92.405 267.289 92.6722 266.872 92.7787C266.409 92.9009 265.706 93.033 264.906 93.033C264.104 93.033 263.41 92.9009 262.941 92.7787C262.525 92.6721 262.169 92.4048 261.95 92.0354C261.422 91.1368 261.151 90.1115 261.161 89.0691ZM282.744 89.0691C282.744 86.3935 284.422 84.2266 286.486 84.2266C288.558 84.2266 290.232 86.3935 290.232 89.0691C290.232 90.1856 289.935 91.2162 289.446 92.0354C289.337 92.2186 289.194 92.3786 289.023 92.5061C288.852 92.6337 288.658 92.7263 288.452 92.7787C287.164 93.1123 285.809 93.1123 284.521 92.7787C284.105 92.6721 283.749 92.4048 283.53 92.0354C283.004 91.1362 282.732 90.1109 282.744 89.0691Z" fill="url(#paint9_linear_802_9878)"/>
<g filter="url(#filter3_i_802_9878)">
<path d="M261.161 89.0691C261.161 86.3935 262.842 84.2266 264.906 84.2266C266.978 84.2266 268.652 86.3935 268.652 89.0691C268.652 90.1856 268.355 91.2162 267.866 92.0354C267.646 92.405 267.289 92.6722 266.872 92.7787C266.409 92.9009 265.706 93.033 264.906 93.033C264.104 93.033 263.41 92.9009 262.941 92.7787C262.525 92.6721 262.169 92.4048 261.95 92.0354C261.422 91.1368 261.151 90.1115 261.161 89.0691ZM282.744 89.0691C282.744 86.3935 284.422 84.2266 286.486 84.2266C288.558 84.2266 290.232 86.3935 290.232 89.0691C290.232 90.1856 289.935 91.2162 289.446 92.0354C289.337 92.2186 289.194 92.3786 289.023 92.5061C288.852 92.6337 288.658 92.7263 288.452 92.7787C287.164 93.1123 285.809 93.1123 284.521 92.7787C284.105 92.6721 283.749 92.4048 283.53 92.0354C283.004 91.1362 282.732 90.1109 282.744 89.0691Z" fill="black"/>
</g>
<path d="M264.522 86.3816C264.944 86.7945 264.971 87.6104 264.578 88.1984C264.181 88.7897 263.521 88.935 263.098 88.5188C262.675 88.1059 262.652 87.29 263.042 86.702C263.438 86.1074 264.099 85.9687 264.522 86.3816ZM285.956 86.3816C286.379 86.7945 286.406 87.6104 286.016 88.1984C285.619 88.7897 284.959 88.935 284.529 88.5188C284.11 88.1059 284.087 87.29 284.48 86.702C284.873 86.1074 285.534 85.9687 285.956 86.3816Z" fill="#4E506A"/>
<path d="M263.006 77.0236C264.103 76.5182 264.975 76.2969 265.652 76.2969C266.567 76.2969 267.141 76.6933 267.469 77.311C268.047 78.3977 267.786 78.6323 266.814 78.8272C263.161 79.5671 259.491 81.9388 257.899 83.4187C256.908 84.3436 255.953 83.3196 256.459 82.5136C256.968 81.7076 259.016 78.8635 263.006 77.0236ZM283.932 77.311C284.262 76.6933 284.834 76.3002 285.749 76.3002C286.429 76.3002 287.301 76.5182 288.395 77.0236C292.385 78.8635 294.433 81.7076 294.938 82.5136C295.444 83.3196 294.496 84.3436 293.501 83.4187C291.906 81.9388 288.239 79.5671 284.583 78.8272C283.611 78.6356 283.36 78.401 283.932 77.311Z" fill="url(#paint10_linear_802_9878)"/>
<path d="M293.868 112.854C291.133 112.854 288.913 110.383 288.913 107.334C288.913 104.288 290.089 102.231 291.037 100.242C293.012 96.0865 293.402 95.5117 293.868 95.5117C294.333 95.5117 294.723 96.0865 296.699 100.242C297.647 102.231 298.823 104.288 298.823 107.334C298.823 110.383 296.603 112.854 293.868 112.854Z" fill="url(#paint11_linear_802_9878)"/>
<path d="M293.869 104.946C292.786 104.946 291.907 103.968 291.907 102.766C291.907 101.557 292.373 100.741 292.749 99.9517C293.529 98.3067 293.684 98.082 293.872 98.082C294.054 98.082 294.209 98.3067 294.989 99.9517C295.365 100.744 295.831 101.557 295.831 102.763C295.831 103.968 294.953 104.946 293.869 104.946Z" fill="url(#paint12_linear_802_9878)"/>
</g>
<path d="M269.171 126.854C268.636 126.854 268.122 126.768 267.628 126.596C267.141 126.418 266.763 126.192 266.496 125.917L266.794 125.331C267.048 125.578 267.388 125.787 267.813 125.958C268.245 126.123 268.698 126.205 269.171 126.205C269.624 126.205 269.991 126.151 270.273 126.041C270.561 125.924 270.77 125.77 270.9 125.578C271.038 125.386 271.106 125.173 271.106 124.94C271.106 124.658 271.024 124.432 270.859 124.26C270.701 124.089 270.492 123.955 270.231 123.859C269.971 123.756 269.683 123.667 269.367 123.592C269.051 123.516 268.736 123.437 268.42 123.355C268.105 123.266 267.813 123.149 267.545 123.005C267.285 122.861 267.072 122.672 266.907 122.439C266.75 122.199 266.671 121.887 266.671 121.502C266.671 121.146 266.763 120.82 266.949 120.525C267.141 120.223 267.432 119.983 267.823 119.804C268.214 119.619 268.715 119.527 269.326 119.527C269.731 119.527 270.132 119.585 270.53 119.702C270.928 119.811 271.271 119.966 271.559 120.165L271.302 120.772C270.993 120.566 270.664 120.415 270.314 120.319C269.971 120.223 269.638 120.175 269.316 120.175C268.883 120.175 268.527 120.233 268.245 120.35C267.964 120.467 267.755 120.624 267.618 120.823C267.487 121.015 267.422 121.235 267.422 121.482C267.422 121.763 267.501 121.99 267.659 122.161C267.823 122.333 268.036 122.466 268.297 122.562C268.564 122.658 268.856 122.744 269.171 122.82C269.487 122.895 269.799 122.978 270.108 123.067C270.424 123.156 270.712 123.273 270.972 123.417C271.24 123.554 271.453 123.739 271.61 123.972C271.775 124.206 271.857 124.511 271.857 124.888C271.857 125.238 271.761 125.564 271.569 125.866C271.377 126.161 271.082 126.401 270.684 126.586C270.293 126.765 269.789 126.854 269.171 126.854ZM276.748 126.792V125.598L276.717 125.403V123.406C276.717 122.947 276.587 122.593 276.326 122.346C276.072 122.099 275.691 121.976 275.184 121.976C274.834 121.976 274.501 122.034 274.186 122.151C273.87 122.267 273.602 122.422 273.383 122.614L273.054 122.068C273.328 121.835 273.657 121.657 274.041 121.533C274.426 121.403 274.83 121.338 275.256 121.338C275.956 121.338 276.494 121.513 276.871 121.863C277.256 122.206 277.448 122.731 277.448 123.437V126.792H276.748ZM274.885 126.843C274.481 126.843 274.127 126.778 273.825 126.648C273.53 126.511 273.304 126.325 273.146 126.092C272.988 125.852 272.909 125.578 272.909 125.269C272.909 124.988 272.975 124.734 273.105 124.507C273.242 124.274 273.462 124.089 273.764 123.952C274.072 123.808 274.484 123.736 274.999 123.736H276.861V124.281H275.019C274.498 124.281 274.134 124.374 273.928 124.559C273.729 124.744 273.63 124.974 273.63 125.248C273.63 125.557 273.75 125.804 273.99 125.989C274.23 126.175 274.566 126.267 274.999 126.267C275.41 126.267 275.763 126.175 276.058 125.989C276.36 125.797 276.58 125.523 276.717 125.166L276.882 125.67C276.745 126.027 276.504 126.312 276.161 126.524C275.825 126.737 275.4 126.843 274.885 126.843ZM281.583 126.843C281.069 126.843 280.605 126.727 280.194 126.494C279.789 126.26 279.47 125.938 279.237 125.526C279.003 125.108 278.887 124.627 278.887 124.085C278.887 123.537 279.003 123.056 279.237 122.645C279.47 122.233 279.789 121.914 280.194 121.688C280.605 121.454 281.069 121.338 281.583 121.338C282.056 121.338 282.478 121.444 282.849 121.657C283.226 121.87 283.525 122.182 283.744 122.593C283.971 122.998 284.084 123.495 284.084 124.085C284.084 124.669 283.974 125.166 283.754 125.578C283.535 125.989 283.236 126.305 282.859 126.524C282.489 126.737 282.063 126.843 281.583 126.843ZM281.635 126.195C282.019 126.195 282.362 126.109 282.664 125.938C282.972 125.759 283.212 125.512 283.384 125.197C283.562 124.874 283.652 124.504 283.652 124.085C283.652 123.66 283.562 123.29 283.384 122.974C283.212 122.658 282.972 122.415 282.664 122.243C282.362 122.065 282.019 121.976 281.635 121.976C281.257 121.976 280.918 122.065 280.616 122.243C280.314 122.415 280.074 122.658 279.895 122.974C279.717 123.29 279.628 123.66 279.628 124.085C279.628 124.504 279.717 124.874 279.895 125.197C280.074 125.512 280.314 125.759 280.616 125.938C280.918 126.109 281.257 126.195 281.635 126.195ZM283.672 126.792V125.166L283.744 124.075L283.641 122.984V119.156H284.372V126.792H283.672Z" fill="#0B1215" fill-opacity="0.8"/>
<g clip-path="url(#clip3_802_9878)">
<path d="M130.901 166.498C130.901 169.991 130.213 173.45 128.876 176.677C127.539 179.905 125.58 182.837 123.11 185.307C120.64 187.777 117.707 189.736 114.48 191.073C111.253 192.41 107.794 193.098 104.301 193.098C100.807 193.098 97.3485 192.41 94.1212 191.073C90.8939 189.736 87.9616 187.777 85.4915 185.307C83.0215 182.837 81.0621 179.905 79.7254 176.677C78.3886 173.45 77.7006 169.991 77.7006 166.498C77.7006 159.443 80.5031 152.677 85.4915 147.689C90.48 142.7 97.2458 139.898 104.301 139.898C111.355 139.898 118.121 142.7 123.11 147.689C128.098 152.677 130.901 159.443 130.901 166.498Z" fill="url(#paint13_linear_802_9878)"/>
<g filter="url(#filter4_d_802_9878)">
<path d="M94.9916 184.955C94.9916 186.71 99.1575 186.431 104.301 186.431C109.441 186.431 113.61 186.71 113.61 184.955C113.61 182.84 109.441 181.46 104.301 181.46C99.1575 181.46 94.9916 182.84 94.9916 184.955Z" fill="black"/>
</g>
<path d="M94.9916 184.955C94.9916 186.71 99.1575 186.431 104.301 186.431C109.441 186.431 113.61 186.71 113.61 184.955C113.61 182.84 109.441 181.46 104.301 181.46C99.1575 181.46 94.9916 182.84 94.9916 184.955Z" fill="url(#paint14_linear_802_9878)"/>
<path d="M89.6715 172.586C89.6715 169.959 91.4603 167.832 93.6613 167.832C95.8656 167.832 97.651 169.959 97.651 172.586C97.651 173.683 97.3418 174.691 96.8132 175.492C96.5662 175.861 96.1883 176.122 95.7559 176.223C95.2572 176.343 94.5157 176.473 93.6613 176.473C92.8068 176.473 92.062 176.343 91.5667 176.223C91.1339 176.123 90.7557 175.862 90.5094 175.492C89.9527 174.626 89.6615 173.616 89.6715 172.586ZM110.95 172.586C110.95 169.959 112.736 167.832 114.94 167.832C117.141 167.832 118.93 169.959 118.93 172.586C118.93 173.683 118.617 174.691 118.092 175.492C117.846 175.862 117.467 176.123 117.035 176.223C116.346 176.39 115.645 176.473 114.94 176.473C114.086 176.473 113.344 176.343 112.845 176.223C112.411 176.123 112.031 175.862 111.781 175.492C111.229 174.624 110.94 173.615 110.95 172.586Z" fill="url(#paint15_linear_802_9878)"/>
<g filter="url(#filter5_i_802_9878)">
<path d="M89.6715 172.586C89.6715 169.959 91.4603 167.832 93.6613 167.832C95.8656 167.832 97.651 169.959 97.651 172.586C97.651 173.683 97.3418 174.691 96.8132 175.492C96.5662 175.861 96.1883 176.122 95.7559 176.223C95.2572 176.343 94.5157 176.473 93.6613 176.473C92.8068 176.473 92.062 176.343 91.5667 176.223C91.1339 176.123 90.7557 175.862 90.5094 175.492C89.9527 174.626 89.6615 173.616 89.6715 172.586ZM110.95 172.586C110.95 169.959 112.736 167.832 114.94 167.832C117.141 167.832 118.93 169.959 118.93 172.586C118.93 173.683 118.617 174.691 118.092 175.492C117.846 175.862 117.467 176.123 117.035 176.223C116.346 176.39 115.645 176.473 114.94 176.473C114.086 176.473 113.344 176.343 112.845 176.223C112.411 176.123 112.031 175.862 111.781 175.492C111.229 174.624 110.94 173.615 110.95 172.586Z" fill="black"/>
</g>
<path d="M94.2207 170.93C94.2367 171.006 94.2445 171.084 94.2439 171.163C94.2439 171.834 93.6588 172.383 92.934 172.383C92.2125 172.383 91.6273 171.834 91.6273 171.166C91.6273 170.89 91.7271 170.634 91.8933 170.431C92.6381 170.607 93.4227 170.777 94.2207 170.93ZM113.927 172.383C113.225 172.383 112.653 171.874 112.62 171.226C113.478 171.099 114.332 170.943 115.164 170.774C115.21 170.9 115.233 171.033 115.23 171.169C115.23 171.834 114.648 172.383 113.923 172.383H113.927Z" fill="#4F4F67"/>
<g filter="url(#filter6_d_802_9878)">
<path d="M107.624 165.17C107.624 163.687 108.166 163.175 109.103 163.175C110.034 163.175 110.48 164.093 110.786 166.72C114.536 166.72 120.886 164.944 121.498 164.944C122.09 164.944 122.419 165.227 122.552 165.832C122.669 166.357 122.476 166.856 121.817 167.162C119.753 168.116 113.695 170.27 108.571 170.27C108.013 170.27 107.624 169.984 107.624 169.27V165.17ZM97.8124 166.72C98.1149 164.093 98.5638 163.175 99.4947 163.175C100.432 163.175 100.974 163.687 100.974 165.17V169.27C100.974 169.984 100.585 170.27 100.027 170.27C94.9032 170.27 88.8454 168.116 86.7807 167.162C86.1224 166.856 85.9295 166.357 86.0459 165.832C86.1789 165.227 86.5114 164.944 87.0999 164.944C87.7116 164.944 94.062 166.72 97.8124 166.72Z" fill="black"/>
</g>
<path d="M107.624 165.17C107.624 163.687 108.166 163.175 109.103 163.175C110.034 163.175 110.48 164.093 110.786 166.72C114.536 166.72 120.886 164.944 121.498 164.944C122.09 164.944 122.419 165.227 122.552 165.832C122.669 166.357 122.476 166.856 121.817 167.162C119.753 168.116 113.695 170.27 108.571 170.27C108.013 170.27 107.624 169.984 107.624 169.27V165.17ZM97.8124 166.72C98.1149 164.093 98.5638 163.175 99.4947 163.175C100.432 163.175 100.974 163.687 100.974 165.17V169.27C100.974 169.984 100.585 170.27 100.027 170.27C94.9032 170.27 88.8454 168.116 86.7807 167.162C86.1224 166.856 85.9295 166.357 86.0459 165.832C86.1789 165.227 86.5114 164.944 87.0999 164.944C87.7116 164.944 94.062 166.72 97.8124 166.72Z" fill="url(#paint16_linear_802_9878)"/>
</g>
<path d="M88.7033 207.037L91.9964 199.833H92.7476L96.0407 207.037H95.238L92.2125 200.276H92.5212L89.4957 207.037H88.7033ZM89.9999 205.113L90.2263 204.495H94.4147L94.6411 205.113H89.9999ZM99.8359 201.583C100.275 201.583 100.659 201.669 100.988 201.84C101.325 202.005 101.585 202.259 101.771 202.602C101.963 202.945 102.059 203.377 102.059 203.898V207.037H101.328V203.97C101.328 203.401 101.184 202.972 100.896 202.684C100.615 202.389 100.217 202.242 99.7021 202.242C99.3179 202.242 98.9818 202.32 98.6936 202.478C98.4123 202.629 98.1928 202.852 98.035 203.147C97.8841 203.435 97.8086 203.785 97.8086 204.197V207.037H97.078V201.634H97.7777V203.116L97.6645 202.838C97.8361 202.447 98.1105 202.142 98.4878 201.923C98.8651 201.696 99.3145 201.583 99.8359 201.583ZM106.338 209.085C105.844 209.085 105.37 209.013 104.917 208.869C104.465 208.725 104.098 208.519 103.816 208.251L104.187 207.696C104.441 207.922 104.753 208.1 105.123 208.231C105.501 208.368 105.898 208.437 106.317 208.437C107.003 208.437 107.507 208.275 107.83 207.953C108.152 207.637 108.313 207.143 108.313 206.471V205.123L108.416 204.197L108.344 203.271V201.634H109.044V206.378C109.044 207.312 108.814 207.994 108.355 208.426C107.902 208.865 107.229 209.085 106.338 209.085ZM106.204 206.831C105.689 206.831 105.226 206.722 104.814 206.502C104.403 206.276 104.077 205.963 103.837 205.566C103.604 205.168 103.487 204.711 103.487 204.197C103.487 203.682 103.604 203.229 103.837 202.838C104.077 202.441 104.403 202.132 104.814 201.912C105.226 201.693 105.689 201.583 106.204 201.583C106.684 201.583 107.116 201.682 107.5 201.881C107.885 202.08 108.19 202.375 108.416 202.766C108.643 203.157 108.756 203.634 108.756 204.197C108.756 204.759 108.643 205.236 108.416 205.627C108.19 206.018 107.885 206.317 107.5 206.523C107.116 206.728 106.684 206.831 106.204 206.831ZM106.276 206.183C106.674 206.183 107.027 206.101 107.336 205.936C107.644 205.764 107.888 205.531 108.066 205.236C108.245 204.934 108.334 204.588 108.334 204.197C108.334 203.806 108.245 203.463 108.066 203.168C107.888 202.873 107.644 202.643 107.336 202.478C107.027 202.307 106.674 202.221 106.276 202.221C105.885 202.221 105.531 202.307 105.216 202.478C104.907 202.643 104.664 202.873 104.485 203.168C104.314 203.463 104.228 203.806 104.228 204.197C104.228 204.588 104.314 204.934 104.485 205.236C104.664 205.531 104.907 205.764 105.216 205.936C105.531 206.101 105.885 206.183 106.276 206.183ZM111.077 207.037V201.634H111.777V203.106L111.705 202.849C111.856 202.437 112.11 202.125 112.466 201.912C112.823 201.693 113.266 201.583 113.794 201.583V202.293C113.767 202.293 113.739 202.293 113.712 202.293C113.684 202.286 113.657 202.283 113.629 202.283C113.06 202.283 112.614 202.458 112.291 202.808C111.969 203.151 111.808 203.641 111.808 204.279V207.037H111.077ZM115.4 209.085C115.146 209.085 114.902 209.044 114.669 208.962C114.442 208.879 114.247 208.756 114.082 208.591L114.422 208.046C114.559 208.176 114.707 208.275 114.864 208.344C115.029 208.42 115.211 208.457 115.41 208.457C115.65 208.457 115.856 208.389 116.027 208.251C116.206 208.121 116.374 207.888 116.531 207.552L116.881 206.759L116.964 206.646L119.187 201.634H119.907L117.2 207.685C117.049 208.035 116.881 208.313 116.696 208.519C116.518 208.725 116.322 208.869 116.11 208.951C115.897 209.04 115.66 209.085 115.4 209.085ZM116.84 207.191L114.35 201.634H115.111L117.314 206.595L116.84 207.191Z" fill="#0B1215" fill-opacity="0.8"/>
<g clip-path="url(#clip4_802_9878)">
<path d="M190 139.9C182.907 139.9 176.104 142.718 171.089 147.733C166.073 152.749 163.256 159.551 163.256 166.644C163.256 173.737 166.073 180.54 171.089 185.555C176.104 190.571 182.907 193.389 190 193.389C197.093 193.389 203.895 190.571 208.911 185.555C213.927 180.54 216.744 173.737 216.744 166.644C216.744 159.551 213.927 152.749 208.911 147.733C203.895 142.718 197.093 139.9 190 139.9Z" fill="url(#paint17_linear_802_9878)"/>
<path d="M198.268 153.273C190.92 153.273 190.001 159.371 190.001 159.371C190.001 159.371 189.085 153.273 181.737 153.273C174.669 153.273 172.61 160.701 173.473 164.673C175.746 175.17 190.001 182.525 190.001 182.525C190.001 182.525 204.259 175.17 206.532 164.673C207.391 160.701 205.328 153.273 198.268 153.273Z" fill="white"/>
</g>
<path d="M170.908 207.329V200.125H171.669V206.67H175.704V207.329H170.908ZM178.935 207.38C178.414 207.38 177.944 207.263 177.526 207.03C177.114 206.79 176.788 206.464 176.548 206.053C176.308 205.634 176.188 205.157 176.188 204.622C176.188 204.08 176.308 203.603 176.548 203.192C176.788 202.78 177.114 202.458 177.526 202.224C177.937 201.991 178.407 201.874 178.935 201.874C179.471 201.874 179.944 201.991 180.356 202.224C180.774 202.458 181.1 202.78 181.333 203.192C181.573 203.603 181.693 204.08 181.693 204.622C181.693 205.157 181.573 205.634 181.333 206.053C181.1 206.464 180.774 206.79 180.356 207.03C179.937 207.263 179.464 207.38 178.935 207.38ZM178.935 206.732C179.326 206.732 179.673 206.646 179.975 206.474C180.277 206.296 180.513 206.049 180.685 205.734C180.863 205.411 180.952 205.041 180.952 204.622C180.952 204.197 180.863 203.826 180.685 203.511C180.513 203.195 180.277 202.952 179.975 202.78C179.673 202.602 179.33 202.512 178.946 202.512C178.561 202.512 178.218 202.602 177.917 202.78C177.615 202.952 177.375 203.195 177.196 203.511C177.018 203.826 176.929 204.197 176.929 204.622C176.929 205.041 177.018 205.411 177.196 205.734C177.375 206.049 177.615 206.296 177.917 206.474C178.218 206.646 178.558 206.732 178.935 206.732ZM184.424 207.329L182.026 201.926H182.787L184.99 206.938H184.629L186.863 201.926H187.583L185.175 207.329H184.424ZM190.756 207.38C190.193 207.38 189.699 207.263 189.274 207.03C188.849 206.79 188.516 206.464 188.276 206.053C188.036 205.634 187.916 205.157 187.916 204.622C187.916 204.087 188.029 203.614 188.255 203.202C188.489 202.79 188.804 202.468 189.202 202.235C189.607 201.995 190.06 201.874 190.56 201.874C191.068 201.874 191.518 201.991 191.909 202.224C192.306 202.451 192.619 202.773 192.845 203.192C193.071 203.603 193.185 204.08 193.185 204.622C193.185 204.656 193.181 204.694 193.174 204.735C193.174 204.77 193.174 204.807 193.174 204.849H188.471V204.303H192.783L192.495 204.519C192.495 204.128 192.409 203.782 192.238 203.48C192.073 203.171 191.847 202.931 191.559 202.759C191.271 202.588 190.938 202.502 190.56 202.502C190.19 202.502 189.857 202.588 189.562 202.759C189.267 202.931 189.037 203.171 188.873 203.48C188.708 203.789 188.626 204.142 188.626 204.54V204.653C188.626 205.065 188.715 205.428 188.893 205.744C189.079 206.053 189.332 206.296 189.655 206.474C189.984 206.646 190.358 206.732 190.777 206.732C191.106 206.732 191.411 206.673 191.692 206.557C191.981 206.44 192.228 206.262 192.433 206.022L192.845 206.495C192.605 206.783 192.303 207.003 191.939 207.154C191.583 207.305 191.188 207.38 190.756 207.38ZM196.823 207.38C196.308 207.38 195.845 207.263 195.433 207.03C195.029 206.797 194.71 206.474 194.476 206.063C194.243 205.644 194.126 205.164 194.126 204.622C194.126 204.073 194.243 203.593 194.476 203.181C194.71 202.77 195.029 202.451 195.433 202.224C195.845 201.991 196.308 201.874 196.823 201.874C197.296 201.874 197.718 201.981 198.088 202.193C198.466 202.406 198.764 202.718 198.984 203.13C199.21 203.535 199.323 204.032 199.323 204.622C199.323 205.205 199.214 205.703 198.994 206.114C198.774 206.526 198.476 206.842 198.099 207.061C197.728 207.274 197.303 207.38 196.823 207.38ZM196.874 206.732C197.258 206.732 197.601 206.646 197.903 206.474C198.212 206.296 198.452 206.049 198.624 205.734C198.802 205.411 198.891 205.041 198.891 204.622C198.891 204.197 198.802 203.826 198.624 203.511C198.452 203.195 198.212 202.952 197.903 202.78C197.601 202.602 197.258 202.512 196.874 202.512C196.497 202.512 196.157 202.602 195.855 202.78C195.553 202.952 195.313 203.195 195.135 203.511C194.957 203.826 194.867 204.197 194.867 204.622C194.867 205.041 194.957 205.411 195.135 205.734C195.313 206.049 195.553 206.296 195.855 206.474C196.157 206.646 196.497 206.732 196.874 206.732ZM198.912 207.329V205.703L198.984 204.612L198.881 203.521V199.693H199.611V207.329H198.912ZM204.34 207.329V201.926H205.07V207.329H204.34ZM204.71 200.732C204.559 200.732 204.432 200.681 204.329 200.578C204.226 200.475 204.175 200.351 204.175 200.207C204.175 200.063 204.226 199.943 204.329 199.847C204.432 199.744 204.559 199.693 204.71 199.693C204.861 199.693 204.988 199.741 205.091 199.837C205.194 199.933 205.245 200.053 205.245 200.197C205.245 200.348 205.194 200.475 205.091 200.578C204.995 200.681 204.868 200.732 204.71 200.732ZM208.812 207.38C208.304 207.38 207.913 207.243 207.638 206.968C207.364 206.694 207.227 206.306 207.227 205.806V200.732H207.957V205.764C207.957 206.08 208.036 206.324 208.194 206.495C208.359 206.667 208.592 206.752 208.894 206.752C209.216 206.752 209.484 206.66 209.697 206.474L209.954 206.999C209.81 207.13 209.635 207.226 209.429 207.287C209.23 207.349 209.024 207.38 208.812 207.38ZM206.259 202.533V201.926H209.604V202.533H206.259Z" fill="#0B1215" fill-opacity="0.8"/>
<g clip-path="url(#clip5_802_9878)">
<path d="M275.7 139.9C268.692 139.9 261.97 142.684 257.014 147.64C252.058 152.596 249.274 159.317 249.274 166.326C249.274 173.334 252.058 180.056 257.014 185.012C261.97 189.968 268.692 192.752 275.7 192.752C282.709 192.752 289.43 189.968 294.386 185.012C299.342 180.056 302.126 173.334 302.126 166.326C302.126 159.317 299.342 152.596 294.386 147.64C289.43 142.684 282.709 139.9 275.7 139.9Z" fill="url(#paint18_linear_802_9878)"/>
<path d="M289.449 164.138C290.03 164.544 290.565 164.947 290.565 166.364C290.565 167.784 289.809 168.359 288.999 168.759C289.33 169.297 289.435 169.948 289.293 170.562C289.039 171.699 287.998 172.581 287.074 172.842C287.473 173.482 287.599 174.113 287.123 174.89C286.512 175.864 285.98 176.234 283.628 176.234H274.049C270.785 176.234 269.094 174.43 269.094 172.931V165.218C269.094 161.155 273.94 157.703 273.94 154.879L273.59 151.361C273.573 151.146 273.616 150.621 273.781 150.469C274.046 150.208 274.776 149.808 275.879 149.808C276.599 149.808 277.078 149.944 277.643 150.214C279.562 151.129 280.061 153.445 280.061 155.308C280.061 156.203 278.693 158.885 278.508 159.814C278.508 159.814 281.372 159.179 284.715 159.156C288.22 159.136 290.492 159.784 290.492 161.938C290.492 162.8 289.769 163.665 289.449 164.138ZM261.166 163.021H263.809C264.335 163.021 264.839 163.23 265.21 163.602C265.582 163.973 265.791 164.477 265.791 165.003V177.555C265.791 178.081 265.582 178.585 265.21 178.957C264.839 179.328 264.335 179.537 263.809 179.537H261.166C260.641 179.537 260.137 179.328 259.765 178.957C259.393 178.585 259.184 178.081 259.184 177.555V165.003C259.184 164.477 259.393 163.973 259.765 163.602C260.137 163.23 260.641 163.021 261.166 163.021Z" fill="white"/>
</g>
<path d="M258.065 206.692V199.488H258.827V206.033H262.861V206.692H258.065ZM263.971 206.692V201.289H264.701V206.692H263.971ZM264.341 200.095C264.19 200.095 264.063 200.044 263.96 199.941C263.857 199.838 263.806 199.715 263.806 199.571C263.806 199.427 263.857 199.306 263.96 199.21C264.063 199.108 264.19 199.056 264.341 199.056C264.492 199.056 264.619 199.104 264.722 199.2C264.825 199.296 264.876 199.416 264.876 199.56C264.876 199.711 264.825 199.838 264.722 199.941C264.626 200.044 264.499 200.095 264.341 200.095ZM267.311 205.292L267.331 204.356L270.696 201.289H271.592L269.214 203.563L268.803 203.913L267.311 205.292ZM266.734 206.692V199.056H267.465V206.692H266.734ZM270.923 206.692L268.669 203.882L269.142 203.316L271.818 206.692H270.923ZM274.999 206.743C274.436 206.743 273.942 206.627 273.517 206.393C273.091 206.153 272.759 205.827 272.519 205.416C272.278 204.997 272.158 204.521 272.158 203.985C272.158 203.45 272.272 202.977 272.498 202.565C272.731 202.154 273.047 201.831 273.445 201.598C273.849 201.358 274.302 201.238 274.803 201.238C275.311 201.238 275.76 201.354 276.151 201.588C276.549 201.814 276.861 202.136 277.088 202.555C277.314 202.967 277.427 203.443 277.427 203.985C277.427 204.02 277.424 204.057 277.417 204.099C277.417 204.133 277.417 204.171 277.417 204.212H272.714V203.666H277.026L276.738 203.882C276.738 203.491 276.652 203.145 276.481 202.843C276.316 202.534 276.089 202.294 275.801 202.123C275.513 201.951 275.18 201.865 274.803 201.865C274.433 201.865 274.1 201.951 273.805 202.123C273.51 202.294 273.28 202.534 273.115 202.843C272.951 203.152 272.868 203.505 272.868 203.903V204.016C272.868 204.428 272.958 204.792 273.136 205.107C273.321 205.416 273.575 205.659 273.897 205.838C274.227 206.009 274.601 206.095 275.019 206.095C275.349 206.095 275.654 206.037 275.935 205.92C276.223 205.803 276.47 205.625 276.676 205.385L277.088 205.858C276.848 206.146 276.546 206.366 276.182 206.517C275.825 206.668 275.431 206.743 274.999 206.743ZM281.065 206.743C280.551 206.743 280.088 206.627 279.676 206.393C279.271 206.16 278.952 205.838 278.719 205.426C278.486 205.008 278.369 204.527 278.369 203.985C278.369 203.437 278.486 202.956 278.719 202.545C278.952 202.133 279.271 201.814 279.676 201.588C280.088 201.354 280.551 201.238 281.065 201.238C281.539 201.238 281.961 201.344 282.331 201.557C282.708 201.769 283.007 202.082 283.226 202.493C283.453 202.898 283.566 203.395 283.566 203.985C283.566 204.569 283.456 205.066 283.237 205.478C283.017 205.889 282.719 206.205 282.341 206.424C281.971 206.637 281.545 206.743 281.065 206.743ZM281.117 206.095C281.501 206.095 281.844 206.009 282.146 205.838C282.455 205.659 282.695 205.412 282.866 205.097C283.045 204.774 283.134 204.404 283.134 203.985C283.134 203.56 283.045 203.19 282.866 202.874C282.695 202.558 282.455 202.315 282.146 202.143C281.844 201.965 281.501 201.876 281.117 201.876C280.739 201.876 280.4 201.965 280.098 202.143C279.796 202.315 279.556 202.558 279.378 202.874C279.199 203.19 279.11 203.56 279.11 203.985C279.11 204.404 279.199 204.774 279.378 205.097C279.556 205.412 279.796 205.659 280.098 205.838C280.4 206.009 280.739 206.095 281.117 206.095ZM283.154 206.692V205.066L283.226 203.975L283.123 202.884V199.056H283.854V206.692H283.154ZM288.582 206.692V201.289H289.313V206.692H288.582ZM288.953 200.095C288.802 200.095 288.675 200.044 288.572 199.941C288.469 199.838 288.418 199.715 288.418 199.571C288.418 199.427 288.469 199.306 288.572 199.21C288.675 199.108 288.802 199.056 288.953 199.056C289.104 199.056 289.231 199.104 289.333 199.2C289.436 199.296 289.488 199.416 289.488 199.56C289.488 199.711 289.436 199.838 289.333 199.941C289.237 200.044 289.111 200.095 288.953 200.095ZM293.054 206.743C292.547 206.743 292.155 206.606 291.881 206.332C291.607 206.057 291.469 205.67 291.469 205.169V200.095H292.2V205.128C292.2 205.443 292.279 205.687 292.437 205.858C292.601 206.03 292.835 206.116 293.137 206.116C293.459 206.116 293.727 206.023 293.939 205.838L294.196 206.363C294.052 206.493 293.877 206.589 293.672 206.651C293.473 206.712 293.267 206.743 293.054 206.743ZM290.502 201.896V201.289H293.847V201.896H290.502Z" fill="#0B1215" fill-opacity="0.8"/>
</g>
<defs>
<filter id="filter0_d_802_9878" x="0" y="0" width="372" height="281.97" filterUnits="userSpaceOnUse" color-interpolation-filters="sRGB">
<feFlood flood-opacity="0" result="BackgroundImageFix"/>
<feColorMatrix in="SourceAlpha" type="matrix" values="0 0 0 0 0 0 0 0 0 0 0 0 0 0 0 0 0 0 127 0" result="hardAlpha"/>
<feOffset dx="-12" dy="4"/>
<feGaussianBlur stdDeviation="20"/>
<feComposite in2="hardAlpha" operator="out"/>
<feColorMatrix type="matrix" values="0 0 0 0 0 0 0 0 0 0 0 0 0 0 0 0 0 0 0.1 0"/>
<feBlend mode="normal" in2="BackgroundImageFix" result="effect1_dropShadow_802_9878"/>
<feBlend mode="normal" in="SourceGraphic" in2="effect1_dropShadow_802_9878" result="shape"/>
</filter>
<filter id="filter1_i_802_9878" x="89.4375" y="73.2129" width="29.7291" height="9.90967" filterUnits="userSpaceOnUse" color-interpolation-filters="sRGB">
<feFlood flood-opacity="0" result="BackgroundImageFix"/>
<feBlend mode="normal" in="SourceGraphic" in2="BackgroundImageFix" result="shape"/>
<feColorMatrix in="SourceAlpha" type="matrix" values="0 0 0 0 0 0 0 0 0 0 0 0 0 0 0 0 0 0 127 0" result="hardAlpha"/>
<feOffset/>
<feGaussianBlur stdDeviation="1.65162"/>
<feComposite in2="hardAlpha" operator="arithmetic" k2="-1" k3="1"/>
<feColorMatrix type="matrix" values="0 0 0 0 0.0980392 0 0 0 0 0.101961 0 0 0 0 0.2 0 0 0 0.819684 0"/>
<feBlend mode="normal" in2="shape" result="effect1_innerShadow_802_9878"/>
</filter>
<filter id="filter2_d_802_9878" x="78.8295" y="58.9716" width="50.9426" height="23.7809" filterUnits="userSpaceOnUse" color-interpolation-filters="sRGB">
<feFlood flood-opacity="0" result="BackgroundImageFix"/>
<feColorMatrix in="SourceAlpha" type="matrix" values="0 0 0 0 0 0 0 0 0 0 0 0 0 0 0 0 0 0 127 0" result="hardAlpha"/>
<feOffset dy="3.30324"/>
<feGaussianBlur stdDeviation="4.95486"/>
<feColorMatrix type="matrix" values="0 0 0 0 0.803922 0 0 0 0 0.388235 0 0 0 0 0.00392157 0 0 0 0.145679 0"/>
<feBlend mode="normal" in2="BackgroundImageFix" result="effect1_dropShadow_802_9878"/>
<feBlend mode="normal" in="SourceGraphic" in2="effect1_dropShadow_802_9878" result="shape"/>
</filter>
<filter id="filter3_i_802_9878" x="261.16" y="84.2266" width="29.072" height="8.80664" filterUnits="userSpaceOnUse" color-interpolation-filters="sRGB">
<feFlood flood-opacity="0" result="BackgroundImageFix"/>
<feBlend mode="normal" in="SourceGraphic" in2="BackgroundImageFix" result="shape"/>
<feColorMatrix in="SourceAlpha" type="matrix" values="0 0 0 0 0 0 0 0 0 0 0 0 0 0 0 0 0 0 127 0" result="hardAlpha"/>
<feOffset/>
<feGaussianBlur stdDeviation="1.65162"/>
<feComposite in2="hardAlpha" operator="arithmetic" k2="-1" k3="1"/>
<feColorMatrix type="matrix" values="0 0 0 0 0.0411227 0 0 0 0 0.0430885 0 0 0 0 0.0922353 0 0 0 0.819684 0"/>
<feBlend mode="normal" in2="shape" result="effect1_innerShadow_802_9878"/>
</filter>
<filter id="filter4_d_802_9878" x="91.6668" y="181.46" width="25.2685" height="11.6364" filterUnits="userSpaceOnUse" color-interpolation-filters="sRGB">
<feFlood flood-opacity="0" result="BackgroundImageFix"/>
<feColorMatrix in="SourceAlpha" type="matrix" values="0 0 0 0 0 0 0 0 0 0 0 0 0 0 0 0 0 0 127 0" result="hardAlpha"/>
<feOffset dy="3.3248"/>
<feGaussianBlur stdDeviation="1.6624"/>
<feColorMatrix type="matrix" values="0 0 0 0 1 0 0 0 0 0.509681 0 0 0 0 0 0 0 0 0.371207 0"/>
<feBlend mode="normal" in2="BackgroundImageFix" result="effect1_dropShadow_802_9878"/>
<feBlend mode="normal" in="SourceGraphic" in2="effect1_dropShadow_802_9878" result="shape"/>
</filter>
<filter id="filter5_i_802_9878" x="89.6713" y="167.832" width="29.2584" height="8.64111" filterUnits="userSpaceOnUse" color-interpolation-filters="sRGB">
<feFlood flood-opacity="0" result="BackgroundImageFix"/>
<feBlend mode="normal" in="SourceGraphic" in2="BackgroundImageFix" result="shape"/>
<feColorMatrix in="SourceAlpha" type="matrix" values="0 0 0 0 0 0 0 0 0 0 0 0 0 0 0 0 0 0 127 0" result="hardAlpha"/>
<feOffset/>
<feGaussianBlur stdDeviation="1.6624"/>
<feComposite in2="hardAlpha" operator="arithmetic" k2="-1" k3="1"/>
<feColorMatrix type="matrix" values="0 0 0 0 0.0387428 0 0 0 0 0.0406183 0 0 0 0 0.0875053 0 0 0 1 0"/>
<feBlend mode="normal" in2="shape" result="effect1_innerShadow_802_9878"/>
</filter>
<filter id="filter6_d_802_9878" x="85.6816" y="163.175" width="37.235" height="9.42257" filterUnits="userSpaceOnUse" color-interpolation-filters="sRGB">
<feFlood flood-opacity="0" result="BackgroundImageFix"/>
<feColorMatrix in="SourceAlpha" type="matrix" values="0 0 0 0 0 0 0 0 0 0 0 0 0 0 0 0 0 0 127 0" result="hardAlpha"/>
<feOffset dy="1.99488"/>
<feGaussianBlur stdDeviation="0.16624"/>
<feColorMatrix type="matrix" values="0 0 0 0 0.565875 0 0 0 0 0.151272 0 0 0 0 0 0 0 0 0.15024 0"/>
<feBlend mode="normal" in2="BackgroundImageFix" result="effect1_dropShadow_802_9878"/>
<feBlend mode="normal" in="SourceGraphic" in2="effect1_dropShadow_802_9878" result="shape"/>
</filter>
<linearGradient id="paint0_linear_802_9878" x1="104.301" y1="65.417" x2="104.301" y2="112.852" gradientUnits="userSpaceOnUse">
<stop stop-color="#FEEA70"/>
<stop offset="1" stop-color="#F69B30"/>
</linearGradient>
<linearGradient id="paint1_linear_802_9878" x1="104.303" y1="86.4258" x2="104.303" y2="106.245" gradientUnits="userSpaceOnUse">
<stop stop-color="#472315"/>
<stop offset="1" stop-color="#8B3A0E"/>
</linearGradient>
<linearGradient id="paint2_linear_802_9878" x1="104.302" y1="73.2129" x2="104.302" y2="83.1226" gradientUnits="userSpaceOnUse">
<stop stop-color="#191A33"/>
<stop offset="0.872" stop-color="#3B426A"/>
</linearGradient>
<linearGradient id="paint3_linear_802_9878" x1="104.301" y1="65.576" x2="104.301" y2="69.5399" gradientUnits="userSpaceOnUse">
<stop stop-color="#E78E0D"/>
<stop offset="1" stop-color="#CB6000"/>
</linearGradient>
<linearGradient id="paint4_linear_802_9878" x1="190" y1="65.419" x2="190" y2="112.853" gradientUnits="userSpaceOnUse">
<stop stop-color="#FEEA70"/>
<stop offset="1" stop-color="#F69B30"/>
</linearGradient>
<linearGradient id="paint5_linear_802_9878" x1="190" y1="83.125" x2="190" y2="106.248" gradientUnits="userSpaceOnUse">
<stop stop-color="#472315"/>
<stop offset="1" stop-color="#8B3A0E"/>
</linearGradient>
<linearGradient id="paint6_linear_802_9878" x1="190.017" y1="96.3379" x2="190.017" y2="104.454" gradientUnits="userSpaceOnUse">
<stop stop-color="#FC607C"/>
<stop offset="1" stop-color="#D91F3A"/>
</linearGradient>
<linearGradient id="paint7_linear_802_9878" x1="275.699" y1="65.419" x2="275.699" y2="112.853" gradientUnits="userSpaceOnUse">
<stop stop-color="#FEEA70"/>
<stop offset="1" stop-color="#F69B30"/>
</linearGradient>
<linearGradient id="paint8_linear_802_9878" x1="275.701" y1="96.3379" x2="275.701" y2="102.944" gradientUnits="userSpaceOnUse">
<stop stop-color="#472315"/>
<stop offset="1" stop-color="#8B3A0E"/>
</linearGradient>
<linearGradient id="paint9_linear_802_9878" x1="275.695" y1="84.2266" x2="275.695" y2="93.033" gradientUnits="userSpaceOnUse">
<stop stop-color="#191A33"/>
<stop offset="0.872" stop-color="#3B426A"/>
</linearGradient>
<linearGradient id="paint10_linear_802_9878" x1="275.7" y1="76.3002" x2="275.7" y2="83.782" gradientUnits="userSpaceOnUse">
<stop stop-color="#E78E0D"/>
<stop offset="1" stop-color="#CB6000"/>
</linearGradient>
<linearGradient id="paint11_linear_802_9878" x1="293.868" y1="109.716" x2="293.868" y2="98.6234" gradientUnits="userSpaceOnUse">
<stop stop-color="#35CAFC"/>
<stop offset="1" stop-color="#007EDB"/>
</linearGradient>
<linearGradient id="paint12_linear_802_9878" x1="293.869" y1="98.082" x2="293.869" y2="104.946" gradientUnits="userSpaceOnUse">
<stop stop-color="#6AE1FF" stop-opacity="0.287"/>
<stop offset="1" stop-color="#A8E3FF" stop-opacity="0.799"/>
</linearGradient>
<linearGradient id="paint13_linear_802_9878" x1="104.302" y1="139.9" x2="104.302" y2="175.645" gradientUnits="userSpaceOnUse">
<stop stop-color="#E04300"/>
<stop offset="1" stop-color="#FFA320"/>
</linearGradient>
<linearGradient id="paint14_linear_802_9878" x1="104.301" y1="182.135" x2="104.301" y2="186.448" gradientUnits="userSpaceOnUse">
<stop stop-color="#3D0D00"/>
<stop offset="1" stop-color="#661C04"/>
</linearGradient>
<linearGradient id="paint15_linear_802_9878" x1="104.301" y1="167.828" x2="104.301" y2="176.473" gradientUnits="userSpaceOnUse">
<stop stop-color="#191A33"/>
<stop offset="0.872" stop-color="#3B426A"/>
</linearGradient>
<linearGradient id="paint16_linear_802_9878" x1="116.318" y1="170.932" x2="116.318" y2="163.175" gradientUnits="userSpaceOnUse">
<stop stop-color="#9A2F00"/>
<stop offset="1" stop-color="#D44800"/>
</linearGradient>
<linearGradient id="paint17_linear_802_9878" x1="190" y1="139.9" x2="190" y2="193.389" gradientUnits="userSpaceOnUse">
<stop stop-color="#FF6680"/>
<stop offset="1" stop-color="#E61739"/>
</linearGradient>
<linearGradient id="paint18_linear_802_9878" x1="275.7" y1="139.9" x2="275.7" y2="192.752" gradientUnits="userSpaceOnUse">
<stop stop-color="#18AFFF"/>
<stop offset="1" stop-color="#0062DF"/>
</linearGradient>
<clipPath id="clip0_802_9878">
<rect width="52.8518" height="52.8518" fill="white" transform="translate(77.874 60)"/>
</clipPath>
<clipPath id="clip1_802_9878">
<rect width="52.8518" height="52.8518" fill="white" transform="translate(163.574 60)"/>
</clipPath>
<clipPath id="clip2_802_9878">
<rect width="52.8518" height="52.8518" fill="white" transform="translate(249.274 60)"/>
</clipPath>
<clipPath id="clip3_802_9878">
<rect width="53.1968" height="53.1968" fill="white" transform="translate(77.7015 139.9)"/>
</clipPath>
<clipPath id="clip4_802_9878">
<rect width="53.4886" height="53.4886" fill="white" transform="translate(163.256 139.9)"/>
</clipPath>
<clipPath id="clip5_802_9878">
<rect width="52.8518" height="52.8518" fill="white" transform="translate(249.274 139.9)"/>
</clipPath>
</defs>
</svg>
