<svg width="41" height="41" viewBox="0 0 41 41" fill="none" xmlns="http://www.w3.org/2000/svg">
<path d="M30.1059 10.9518C30.0816 10.8056 29.9597 10.7081 29.8379 10.7081C29.7161 10.7081 27.4015 10.5376 27.4015 10.5376C27.4015 10.5376 25.7935 8.92956 25.5986 8.75901C25.428 8.58846 25.0625 8.63719 24.9407 8.68592C24.9164 8.68592 24.5753 8.78338 24.0392 8.95392C23.5032 7.39462 22.553 5.95714 20.8719 5.95714C20.8232 5.95714 20.7745 5.95714 20.7257 5.95714C20.2384 5.32367 19.6537 5.05566 19.1421 5.05566C15.2194 5.05566 13.3434 9.95285 12.7587 12.438C11.2481 12.9009 10.1517 13.242 10.0299 13.2907C9.17713 13.5587 9.15277 13.5831 9.05531 14.3871C8.95786 14.9719 6.74072 32.1486 6.74072 32.1486L24.0392 35.389L33.4194 33.3668C33.4194 33.3668 30.1303 11.1223 30.1059 10.9518ZM23.0647 9.24629C22.6261 9.39248 22.1388 9.53866 21.6028 9.70921C21.6028 9.61176 21.6028 9.5143 21.6028 9.39248C21.6028 8.41791 21.4567 7.63826 21.2617 7.02916C22.1388 7.12661 22.6992 8.10118 23.0647 9.24629ZM20.1897 7.19971C20.4334 7.80881 20.5795 8.66155 20.5795 9.83103C20.5795 9.87976 20.5795 9.95285 20.5795 10.0016C19.6293 10.294 18.5817 10.6107 17.5584 10.9274C18.1431 8.71028 19.2395 7.6139 20.1897 7.19971ZM19.0202 6.10332C19.1908 6.10332 19.3613 6.15205 19.5319 6.27387C18.2893 6.85861 16.9249 8.34482 16.3646 11.3172C15.5362 11.5852 14.7322 11.8289 13.9769 12.0482C14.6347 9.7823 16.2184 6.10332 19.0202 6.10332Z" fill="#95BF47"/>
<path d="M29.8372 10.7086C29.7154 10.7086 27.4008 10.5381 27.4008 10.5381C27.4008 10.5381 25.7928 8.93006 25.5979 8.75952C25.5248 8.68642 25.4517 8.66206 25.3542 8.6377L24.0386 35.3895L33.4188 33.3673C33.4188 33.3673 30.1296 11.1228 30.1052 10.9767C30.0809 10.8061 29.9347 10.733 29.8372 10.7086Z" fill="#5E8E3E"/>
<path d="M20.8477 15.8975L19.7026 19.3328C19.7026 19.3328 18.6793 18.7968 17.4611 18.7968C15.6338 18.7968 15.5607 19.9419 15.5607 20.2343C15.5607 21.7936 19.6538 22.4027 19.6538 26.0817C19.6538 28.981 17.8265 30.8327 15.3414 30.8327C12.369 30.8327 10.8584 28.981 10.8584 28.981L11.6624 26.3497C11.6624 26.3497 13.2217 27.6897 14.5374 27.6897C15.3901 27.6897 15.7556 27.0075 15.7556 26.5202C15.7556 24.4737 12.3933 24.3762 12.3933 21.014C12.3933 18.1877 14.4156 15.4346 18.5331 15.4346C20.068 15.4346 20.8477 15.8975 20.8477 15.8975Z" fill="#F8F8FF"/>
</svg>
