<svg width="40" height="40" viewBox="0 0 40 40" fill="none" xmlns="http://www.w3.org/2000/svg">
<path d="M17.0003 16.8145V15.6454C16.5947 15.5811 16.1851 15.5459 15.7745 15.5401C11.7995 15.5316 8.28041 18.1091 7.08673 21.9029C5.89305 25.6967 7.30206 29.8265 10.5648 32.0981C9.36831 30.8168 8.56806 29.2164 8.26058 27.4901C7.9531 25.7638 8.15155 23.9853 8.83196 22.3693C9.51238 20.7534 10.6457 19.369 12.0951 18.3834C13.5444 17.3977 15.248 16.8529 17 16.8146L17.0003 16.8145Z" fill="#25F4EE"/>
<path d="M17.2206 30.0574C19.443 30.0544 21.2698 28.3025 21.3671 26.0808V6.25531H24.9867C24.9129 5.84104 24.8776 5.4208 24.8814 5L19.9305 5V24.8064C19.8482 27.0393 18.017 28.8081 15.784 28.8117C15.1167 28.806 14.4603 28.6418 13.8688 28.3326C14.2521 28.864 14.7556 29.2973 15.338 29.597C15.9205 29.8968 16.5656 30.0545 17.2206 30.0574ZM31.7476 12.9819V11.8799C30.4154 11.8805 29.1128 11.4871 28.0033 10.7493C28.9759 11.8807 30.2903 12.6644 31.7476 12.9819Z" fill="#25F4EE"/>
<path d="M28.0029 10.7498C26.9098 9.50445 26.3073 7.90352 26.3079 6.24609H24.9862C25.1569 7.16246 25.5125 8.03442 26.0311 8.80874C26.5498 9.58307 27.2207 10.2435 28.0029 10.7498ZM15.774 20.4949C14.8471 20.4996 13.9483 20.8142 13.2206 21.3888C12.493 21.9633 11.9781 22.7647 11.758 23.6657C11.5378 24.5667 11.625 25.5154 12.0056 26.3611C12.3862 27.2068 13.0385 27.9009 13.8586 28.3331C13.4102 27.7135 13.1417 26.982 13.0827 26.2194C13.0237 25.4567 13.1766 24.6926 13.5244 24.0114C13.8722 23.3302 14.4015 22.7585 15.0537 22.3594C15.7059 21.9604 16.4556 21.7495 17.2201 21.75C17.6357 21.7555 18.0484 21.8202 18.4457 21.9423V16.9015C18.04 16.8407 17.6304 16.8086 17.2201 16.8057H16.9997V20.6385C16.6003 20.5313 16.1874 20.4829 15.774 20.4949Z" fill="#FE2C55"/>
<path d="M31.7477 12.9814V16.8144C29.2815 16.8096 26.8794 16.0285 24.8816 14.5817V24.6526C24.8709 29.6778 20.7967 33.7461 15.7746 33.7461C13.9094 33.7495 12.0891 33.1736 10.5648 32.098C11.8078 33.4357 13.4245 34.3679 15.2044 34.7731C16.9844 35.1783 18.845 35.0377 20.544 34.3698C22.243 33.7018 23.7016 32.5373 24.7298 31.0281C25.7579 29.5188 26.3081 27.7347 26.3085 25.9082V15.8658C28.313 17.303 30.7181 18.0739 33.1841 18.0697V13.1344C32.7014 13.133 32.22 13.0817 31.7477 12.9814Z" fill="#FE2C55"/>
<path d="M24.8815 24.6535V14.5826C26.8854 16.0211 29.2909 16.7922 31.7572 16.7865V12.9537C30.3002 12.6458 28.9827 11.8723 28.0034 10.7498C27.2212 10.2435 26.5503 9.58307 26.0317 8.80874C25.513 8.03442 25.1575 7.16246 24.9868 6.24609H21.3672V26.0815C21.3319 26.9449 21.0288 27.7759 20.4998 28.459C19.9709 29.142 19.2424 29.6433 18.4157 29.893C17.5889 30.1427 16.705 30.1286 15.8867 29.8525C15.0683 29.5764 14.3563 29.0521 13.8495 28.3524C13.0292 27.9203 12.3768 27.2262 11.9961 26.3805C11.6154 25.5347 11.5282 24.5859 11.7483 23.6848C11.9685 22.7838 12.4834 21.9823 13.2112 21.4077C13.939 20.8332 14.8378 20.5186 15.7648 20.514C16.1806 20.5177 16.5935 20.5823 16.9906 20.7057V16.8727C15.2291 16.9026 13.5144 17.4447 12.0556 18.4328C10.5967 19.421 9.45663 20.8125 8.77444 22.4378C8.09225 24.063 7.89739 25.8518 8.21362 27.586C8.52984 29.3201 9.34349 30.9248 10.5554 32.2042C12.0946 33.2444 13.9175 33.7833 15.7745 33.747C20.7966 33.747 24.8709 29.6787 24.8815 24.6535Z" fill="black"/>
</svg>
