<svg width="365" height="410" viewBox="0 0 365 410" fill="none" xmlns="http://www.w3.org/2000/svg">
<path d="M353.006 106.711L181.491 8.56055L11.959 106.711V306.977L181.491 401.161L353.006 301.028V106.711ZM11.959 106.711L353.006 301.028M181.491 8.56055V401.161M353.006 106.711L11.959 306.977" stroke="white" stroke-opacity="0.2" stroke-width="1.98283"/>
<path d="M181.727 55.3524L52.6063 130.106V282.635L181.727 354.368L312.357 278.104V130.106L181.727 55.3524Z" stroke="white" stroke-opacity="0.2" stroke-width="1.98283"/>
<path d="M181.98 105.568L96.2285 155.214V256.512L181.98 304.151L268.735 253.503V155.214L181.98 105.568Z" stroke="white" stroke-opacity="0.2" stroke-width="1.98283"/>
<path d="M182.234 155.785L139.851 180.323V230.389L182.234 253.935L225.112 228.902V180.323L182.234 155.785Z" stroke="white" stroke-opacity="0.2" stroke-width="1.98283"/>
<path d="M335.16 295.081L182.482 353.574L55 281.5L153.731 187.016L182.482 178.094L213.216 189.991L335.16 295.081Z" fill="url(#paint0_linear_802_7793)" fill-opacity="0.6" stroke="#8784D2" stroke-width="1.98283"/>
<path d="M302.442 134.472L182.481 373.403L146.79 227.665L156.704 186.025L181.5 105L302.442 134.472Z" fill="url(#paint1_linear_802_7793)" fill-opacity="0.7"/>
<defs>
<linearGradient id="paint0_linear_802_7793" x1="202.806" y1="178.094" x2="202.806" y2="353.574" gradientUnits="userSpaceOnUse">
<stop stop-color="#8784D2"/>
<stop offset="1" stop-color="#45446C"/>
</linearGradient>
<linearGradient id="paint1_linear_802_7793" x1="224.616" y1="110.678" x2="224.616" y2="373.403" gradientUnits="userSpaceOnUse">
<stop stop-color="#F1F1F1"/>
<stop offset="1" stop-color="#8B8B8B"/>
</linearGradient>
</defs>
</svg>
