<svg width="699" height="641" viewBox="0 0 699 641" fill="none" xmlns="http://www.w3.org/2000/svg">
<g filter="url(#filter0_d_999_3197)">
<g clip-path="url(#clip0_999_3197)">
<mask id="path-2-inside-1_999_3197" fill="white">
<path d="M54.811 46.671C54.811 41.8525 58.7172 37.9463 63.5357 37.9463H660.086C664.905 37.9463 668.811 41.8525 668.811 46.671V96.845H54.811V46.671Z"/>
</mask>
<path d="M54.811 46.671C54.811 41.8525 58.7172 37.9463 63.5357 37.9463H660.086C664.905 37.9463 668.811 41.8525 668.811 46.671V96.845H54.811V46.671Z" fill="#F8F8FF"/>
<path d="M668.811 96.845V97.9356H669.902V96.845H668.811ZM54.811 96.845H53.7204V97.9356H54.811V96.845ZM63.5357 39.0369H660.086V36.8557H63.5357V39.0369ZM667.72 46.671V96.845H669.902V46.671H667.72ZM668.811 95.7545H54.811V97.9356H668.811V95.7545ZM55.9016 96.845V46.671H53.7204V96.845H55.9016ZM660.086 39.0369C664.303 39.0369 667.72 42.4548 667.72 46.671H669.902C669.902 41.2502 665.507 36.8557 660.086 36.8557V39.0369ZM63.5357 36.8557C58.1149 36.8557 53.7204 41.2501 53.7204 46.671H55.9016C55.9016 42.4548 59.3195 39.0369 63.5357 39.0369V36.8557Z" fill="black" fill-opacity="0.1" mask="url(#path-2-inside-1_999_3197)"/>
<path d="M85.6177 74.3955V62.8135H81.0634V60.6541H92.7239V62.8135H88.1696V74.3955H85.6177ZM98.0414 74.5329C96.9682 74.5329 96.0129 74.3039 95.1753 73.8459C94.3377 73.3747 93.6768 72.7335 93.1926 71.9221C92.7084 71.1107 92.4663 70.188 92.4663 69.1542C92.4663 68.1072 92.7084 67.1846 93.1926 66.3862C93.6768 65.5748 94.3377 64.9401 95.1753 64.4821C96.0129 64.024 96.9682 63.795 98.0414 63.795C99.1276 63.795 100.089 64.024 100.927 64.4821C101.778 64.9401 102.439 65.5683 102.91 66.3666C103.394 67.1649 103.636 68.0941 103.636 69.1542C103.636 70.188 103.394 71.1107 102.91 71.9221C102.439 72.7335 101.778 73.3747 100.927 73.8459C100.089 74.3039 99.1276 74.5329 98.0414 74.5329ZM98.0414 72.4325C98.6434 72.4325 99.1799 72.3016 99.6511 72.0398C100.122 71.7781 100.489 71.3986 100.75 70.9013C101.025 70.404 101.163 69.8216 101.163 69.1542C101.163 68.4736 101.025 67.8913 100.75 67.407C100.489 66.9097 100.122 66.5302 99.6511 66.2685C99.1799 66.0067 98.6499 65.8758 98.061 65.8758C97.459 65.8758 96.9224 66.0067 96.4513 66.2685C95.9932 66.5302 95.6268 66.9097 95.352 67.407C95.0771 67.8913 94.9397 68.4736 94.9397 69.1542C94.9397 69.8216 95.0771 70.404 95.352 70.9013C95.6268 71.3986 95.9932 71.7781 96.4513 72.0398C96.9224 72.3016 97.4524 72.4325 98.0414 72.4325ZM109.928 74.5329C108.777 74.5329 107.887 74.2385 107.259 73.6495C106.63 73.0475 106.316 72.1642 106.316 70.9994V61.5964H108.77V70.9405C108.77 71.4378 108.894 71.8239 109.143 72.0987C109.405 72.3736 109.765 72.511 110.223 72.511C110.772 72.511 111.23 72.367 111.597 72.0791L112.284 73.8262C111.996 74.0618 111.643 74.2385 111.224 74.3562C110.805 74.474 110.373 74.5329 109.928 74.5329ZM104.589 65.9544V63.9913H111.577V65.9544H104.589ZM120.761 74.3955V72.2754L120.624 71.8239V68.1137C120.624 67.3939 120.408 66.8377 119.976 66.4451C119.544 66.0394 118.89 65.8366 118.013 65.8366C117.424 65.8366 116.841 65.9282 116.266 66.1114C115.703 66.2946 115.225 66.5498 114.833 66.877L113.871 65.0906C114.433 64.6588 115.101 64.3381 115.873 64.1287C116.658 63.9063 117.47 63.795 118.307 63.795C119.825 63.795 120.997 64.1614 121.821 64.8943C122.659 65.6141 123.077 66.733 123.077 68.2511V74.3955H120.761ZM117.463 74.5329C116.678 74.5329 115.991 74.4021 115.402 74.1403C114.813 73.8655 114.355 73.4925 114.028 73.0214C113.714 72.5371 113.557 71.994 113.557 71.392C113.557 70.8031 113.694 70.2731 113.969 69.802C114.257 69.3308 114.721 68.9578 115.363 68.683C116.004 68.4082 116.854 68.2708 117.915 68.2708H120.957V69.9001H118.091C117.254 69.9001 116.691 70.0375 116.403 70.3124C116.115 70.5741 115.971 70.9013 115.971 71.2939C115.971 71.7388 116.148 72.0922 116.501 72.3539C116.854 72.6157 117.345 72.7465 117.973 72.7465C118.575 72.7465 119.112 72.6091 119.583 72.3343C120.067 72.0595 120.414 71.6538 120.624 71.1172L121.036 72.5895C120.8 73.2046 120.375 73.6823 119.76 74.0225C119.158 74.3628 118.392 74.5329 117.463 74.5329ZM126.227 74.3955V59.8296H128.68V74.3955H126.227ZM139.917 66.3666H146.749V68.4671H139.917V66.3666ZM140.114 72.2558H147.868V74.3955H137.562V60.6541H147.593V62.7939H140.114V72.2558ZM163.708 63.795C164.546 63.795 165.285 63.9586 165.926 64.2858C166.581 64.6129 167.091 65.1168 167.458 65.7973C167.824 66.4648 168.007 67.3285 168.007 68.3886V74.3955H165.553V68.7026C165.553 67.7735 165.351 67.0799 164.945 66.6218C164.539 66.1638 163.957 65.9347 163.198 65.9347C162.661 65.9347 162.184 66.0525 161.765 66.2881C161.359 66.5237 161.038 66.8705 160.803 67.3285C160.58 67.7866 160.469 68.3689 160.469 69.0756V74.3955H158.015V68.7026C158.015 67.7735 157.812 67.0799 157.407 66.6218C157.001 66.1638 156.419 65.9347 155.66 65.9347C155.123 65.9347 154.645 66.0525 154.227 66.2881C153.821 66.5237 153.5 66.8705 153.265 67.3285C153.042 67.7866 152.931 68.3689 152.931 69.0756V74.3955H150.477V63.9128H152.813V66.7003L152.401 65.8758C152.754 65.1953 153.265 64.6784 153.932 64.325C154.613 63.9717 155.385 63.795 156.249 63.795C157.23 63.795 158.081 64.0371 158.801 64.5213C159.533 65.0056 160.018 65.7384 160.253 66.72L159.291 66.3862C159.632 65.601 160.194 64.9728 160.98 64.5017C161.765 64.0306 162.674 63.795 163.708 63.795ZM175.873 74.5329C174.8 74.5329 173.845 74.3039 173.007 73.8459C172.17 73.3747 171.509 72.7335 171.025 71.9221C170.54 71.1107 170.298 70.188 170.298 69.1542C170.298 68.1072 170.54 67.1846 171.025 66.3862C171.509 65.5748 172.17 64.9401 173.007 64.4821C173.845 64.024 174.8 63.795 175.873 63.795C176.96 63.795 177.922 64.024 178.759 64.4821C179.61 64.9401 180.271 65.5683 180.742 66.3666C181.226 67.1649 181.468 68.0941 181.468 69.1542C181.468 70.188 181.226 71.1107 180.742 71.9221C180.271 72.7335 179.61 73.3747 178.759 73.8459C177.922 74.3039 176.96 74.5329 175.873 74.5329ZM175.873 72.4325C176.475 72.4325 177.012 72.3016 177.483 72.0398C177.954 71.7781 178.321 71.3986 178.582 70.9013C178.857 70.404 178.995 69.8216 178.995 69.1542C178.995 68.4736 178.857 67.8913 178.582 67.407C178.321 66.9097 177.954 66.5302 177.483 66.2685C177.012 66.0067 176.482 65.8758 175.893 65.8758C175.291 65.8758 174.754 66.0067 174.283 66.2685C173.825 66.5302 173.459 66.9097 173.184 67.407C172.909 67.8913 172.772 68.4736 172.772 69.1542C172.772 69.8216 172.909 70.404 173.184 70.9013C173.459 71.3986 173.825 71.7781 174.283 72.0398C174.754 72.3016 175.285 72.4325 175.873 72.4325ZM187.76 74.5329C186.609 74.5329 185.719 74.2385 185.091 73.6495C184.462 73.0475 184.148 72.1642 184.148 70.9994V61.5964H186.602V70.9405C186.602 71.4378 186.726 71.8239 186.975 72.0987C187.237 72.3736 187.597 72.511 188.055 72.511C188.604 72.511 189.062 72.367 189.429 72.0791L190.116 73.8262C189.828 74.0618 189.475 74.2385 189.056 74.3562C188.637 74.474 188.205 74.5329 187.76 74.5329ZM182.421 65.9544V63.9913H189.409V65.9544H182.421ZM192.135 74.3955V63.9128H194.588V74.3955H192.135ZM193.371 62.1853C192.913 62.1853 192.534 62.0413 192.233 61.7534C191.945 61.4655 191.801 61.1187 191.801 60.713C191.801 60.2942 191.945 59.9474 192.233 59.6726C192.534 59.3847 192.913 59.2407 193.371 59.2407C193.829 59.2407 194.202 59.3781 194.49 59.653C194.791 59.9147 194.942 60.2484 194.942 60.6541C194.942 61.086 194.798 61.4524 194.51 61.7534C194.222 62.0413 193.842 62.1853 193.371 62.1853ZM202.52 74.5329C201.447 74.5329 200.492 74.3039 199.654 73.8459C198.817 73.3747 198.156 72.7335 197.672 71.9221C197.187 71.1107 196.945 70.188 196.945 69.1542C196.945 68.1072 197.187 67.1846 197.672 66.3862C198.156 65.5748 198.817 64.9401 199.654 64.4821C200.492 64.024 201.447 63.795 202.52 63.795C203.607 63.795 204.568 64.024 205.406 64.4821C206.257 64.9401 206.918 65.5683 207.389 66.3666C207.873 67.1649 208.115 68.0941 208.115 69.1542C208.115 70.188 207.873 71.1107 207.389 71.9221C206.918 72.7335 206.257 73.3747 205.406 73.8459C204.568 74.3039 203.607 74.5329 202.52 74.5329ZM202.52 72.4325C203.122 72.4325 203.659 72.3016 204.13 72.0398C204.601 71.7781 204.968 71.3986 205.229 70.9013C205.504 70.404 205.642 69.8216 205.642 69.1542C205.642 68.4736 205.504 67.8913 205.229 67.407C204.968 66.9097 204.601 66.5302 204.13 66.2685C203.659 66.0067 203.129 65.8758 202.54 65.8758C201.938 65.8758 201.401 66.0067 200.93 66.2685C200.472 66.5302 200.106 66.9097 199.831 67.407C199.556 67.8913 199.419 68.4736 199.419 69.1542C199.419 69.8216 199.556 70.404 199.831 70.9013C200.106 71.3986 200.472 71.7781 200.93 72.0398C201.401 72.3016 201.931 72.4325 202.52 72.4325ZM216.41 63.795C217.247 63.795 217.993 63.9586 218.647 64.2858C219.315 64.6129 219.838 65.1168 220.218 65.7973C220.597 66.4648 220.787 67.3285 220.787 68.3886V74.3955H218.333V68.7026C218.333 67.7735 218.111 67.0799 217.666 66.6218C217.234 66.1638 216.626 65.9347 215.84 65.9347C215.264 65.9347 214.754 66.0525 214.309 66.2881C213.864 66.5237 213.517 66.877 213.269 67.3481C213.033 67.8062 212.915 68.3886 212.915 69.0953V74.3955H210.462V63.9128H212.798V66.7396L212.385 65.8758C212.752 65.2084 213.282 64.698 213.975 64.3447C214.682 63.9782 215.493 63.795 216.41 63.795ZM230.358 74.3955V72.2754L230.221 71.8239V68.1137C230.221 67.3939 230.005 66.8377 229.573 66.4451C229.141 66.0394 228.487 65.8366 227.61 65.8366C227.021 65.8366 226.439 65.9282 225.863 66.1114C225.3 66.2946 224.823 66.5498 224.43 66.877L223.468 65.0906C224.031 64.6588 224.698 64.3381 225.47 64.1287C226.256 63.9063 227.067 63.795 227.905 63.795C229.423 63.795 230.594 64.1614 231.419 64.8943C232.256 65.6141 232.675 66.733 232.675 68.2511V74.3955H230.358ZM227.061 74.5329C226.275 74.5329 225.588 74.4021 224.999 74.1403C224.41 73.8655 223.952 73.4925 223.625 73.0214C223.311 72.5371 223.154 71.994 223.154 71.392C223.154 70.8031 223.291 70.2731 223.566 69.802C223.854 69.3308 224.319 68.9578 224.96 68.683C225.601 68.4082 226.452 68.2708 227.512 68.2708H230.555V69.9001H227.689C226.851 69.9001 226.288 70.0375 226 70.3124C225.713 70.5741 225.569 70.9013 225.569 71.2939C225.569 71.7388 225.745 72.0922 226.099 72.3539C226.452 72.6157 226.943 72.7465 227.571 72.7465C228.173 72.7465 228.71 72.6091 229.181 72.3343C229.665 72.0595 230.012 71.6538 230.221 71.1172L230.633 72.5895C230.398 73.2046 229.972 73.6823 229.357 74.0225C228.755 74.3628 227.99 74.5329 227.061 74.5329ZM235.824 74.3955V59.8296H238.278V74.3955H235.824ZM241.498 74.3955V63.9128H243.952V74.3955H241.498ZM242.735 62.1853C242.277 62.1853 241.898 62.0413 241.597 61.7534C241.309 61.4655 241.165 61.1187 241.165 60.713C241.165 60.2942 241.309 59.9474 241.597 59.6726C241.898 59.3847 242.277 59.2407 242.735 59.2407C243.193 59.2407 243.566 59.3781 243.854 59.653C244.155 59.9147 244.306 60.2484 244.306 60.6541C244.306 61.086 244.162 61.4524 243.874 61.7534C243.586 62.0413 243.206 62.1853 242.735 62.1853ZM251.119 74.5329C249.967 74.5329 249.077 74.2385 248.449 73.6495C247.821 73.0475 247.507 72.1642 247.507 70.9994V61.5964H249.961V70.9405C249.961 71.4378 250.085 71.8239 250.333 72.0987C250.595 72.3736 250.955 72.511 251.413 72.511C251.963 72.511 252.421 72.367 252.787 72.0791L253.474 73.8262C253.186 74.0618 252.833 74.2385 252.414 74.3562C251.996 74.474 251.564 74.5329 251.119 74.5329ZM245.779 65.9544V63.9913H252.768V65.9544H245.779ZM256.165 78.3412C255.655 78.3412 255.144 78.2562 254.634 78.0861C254.123 77.9159 253.698 77.6804 253.358 77.3794L254.339 75.5733C254.588 75.7958 254.869 75.9725 255.183 76.1034C255.498 76.2342 255.818 76.2997 256.145 76.2997C256.59 76.2997 256.95 76.1884 257.225 75.966C257.5 75.7435 257.755 75.3705 257.991 74.847L258.599 73.4729L258.795 73.1784L262.761 63.9128H265.117L260.209 75.2396C259.882 76.0248 259.515 76.6465 259.11 77.1045C258.717 77.5626 258.272 77.8832 257.775 78.0664C257.29 78.2496 256.754 78.3412 256.165 78.3412ZM258.324 74.7685L253.593 63.9128H256.145L259.993 72.9625L258.324 74.7685Z" fill="#0E1012"/>
<path d="M632.754 71.8267C632.754 72.0289 632.694 72.2266 632.581 72.3947C632.469 72.5628 632.309 72.6939 632.122 72.7713C631.936 72.8487 631.73 72.8689 631.532 72.8295C631.333 72.79 631.151 72.6926 631.008 72.5496C630.865 72.4066 630.768 72.2245 630.728 72.0261C630.689 71.8278 630.709 71.6222 630.787 71.4354C630.864 71.2486 630.995 71.0889 631.163 70.9766C631.331 70.8642 631.529 70.8043 631.731 70.8043C632.002 70.8043 632.262 70.912 632.454 71.1037C632.646 71.2955 632.754 71.5555 632.754 71.8267ZM631.731 62.6249C629.852 62.6249 628.323 64.0009 628.323 65.6921V66.0329C628.323 66.2137 628.395 66.3871 628.523 66.5149C628.651 66.6427 628.824 66.7146 629.005 66.7146C629.185 66.7146 629.359 66.6427 629.487 66.5149C629.614 66.3871 629.686 66.2137 629.686 66.0329V65.6921C629.686 64.7549 630.604 63.9881 631.731 63.9881C632.858 63.9881 633.776 64.7549 633.776 65.6921C633.776 66.6294 632.858 67.3962 631.731 67.3962C631.55 67.3962 631.377 67.468 631.249 67.5958C631.121 67.7236 631.05 67.897 631.05 68.0778V68.7594C631.05 68.9402 631.121 69.1136 631.249 69.2414C631.377 69.3692 631.55 69.441 631.731 69.441C631.912 69.441 632.085 69.3692 632.213 69.2414C632.341 69.1136 632.413 68.9402 632.413 68.7594V68.6981C633.967 68.4126 635.139 67.1729 635.139 65.6921C635.139 64.0009 633.611 62.6249 631.731 62.6249ZM640.592 67.3962C640.592 69.1487 640.072 70.8619 639.099 72.3191C638.125 73.7763 636.741 74.912 635.122 75.5827C633.503 76.2533 631.721 76.4288 630.002 76.0869C628.284 75.745 626.705 74.9011 625.465 73.6619C624.226 72.4226 623.382 70.8437 623.04 69.1249C622.698 67.406 622.874 65.6243 623.545 64.0052C624.215 62.3861 625.351 61.0022 626.808 60.0285C628.265 59.0548 629.979 58.5352 631.731 58.5352C634.08 58.5376 636.333 59.472 637.994 61.1332C639.655 62.7945 640.59 65.0468 640.592 67.3962ZM639.229 67.3962C639.229 65.9132 638.789 64.4636 637.965 63.2306C637.141 61.9976 635.97 61.0366 634.6 60.4691C633.23 59.9016 631.723 59.7532 630.268 60.0425C628.814 60.3318 627.478 61.0459 626.429 62.0944C625.381 63.143 624.667 64.479 624.377 65.9334C624.088 67.3879 624.237 68.8954 624.804 70.2654C625.372 71.6355 626.333 72.8065 627.566 73.6303C628.799 74.4542 630.248 74.8939 631.731 74.8939C633.719 74.8917 635.625 74.101 637.03 72.6954C638.436 71.2898 639.227 69.384 639.229 67.3962Z" fill="black"/>
<mask id="path-6-inside-2_999_3197" fill="white">
<path d="M54.811 96.8447H668.811V635.347H54.811V96.8447Z"/>
</mask>
<path d="M54.811 96.8447H668.811V635.347H54.811V96.8447Z" fill="#F8F8FF"/>
<path d="M668.811 635.347V636.401H669.865V635.347H668.811ZM54.811 635.347H53.757V636.401H54.811V635.347ZM667.757 96.8447V635.347H669.865V96.8447H667.757ZM668.811 634.293H54.811V636.401H668.811V634.293ZM55.8651 635.347V96.8447H53.757V635.347H55.8651Z" fill="#0B1215" fill-opacity="0.1" mask="url(#path-6-inside-2_999_3197)"/>
<path d="M108.965 137.248H114.305V138.387H107.656V129.226H114.121V130.364H108.965V133.178H113.559V134.29H108.965V137.248ZM121.937 138.387H120.51L118.508 135.73L116.48 138.387H115.079L117.815 134.84L115.21 131.451H116.611L118.521 133.95L120.419 131.451H121.793L119.176 134.84L121.937 138.387ZM126.101 138.465C123.968 138.465 122.437 136.986 122.437 134.919C122.437 132.851 123.968 131.385 126.101 131.385C127.344 131.385 128.378 131.896 128.928 132.864L127.972 133.479C127.527 132.799 126.847 132.484 126.088 132.484C124.727 132.484 123.706 133.44 123.706 134.919C123.706 136.424 124.727 137.366 126.088 137.366C126.847 137.366 127.527 137.052 127.972 136.371L128.928 136.973C128.378 137.942 127.344 138.465 126.101 138.465ZM131.183 130.116C130.698 130.116 130.332 129.762 130.332 129.304C130.332 128.846 130.698 128.48 131.183 128.48C131.667 128.48 132.033 128.833 132.033 129.278C132.033 129.749 131.68 130.116 131.183 130.116ZM130.554 138.387V131.451H131.811V138.387H130.554ZM137.717 137.078L138.109 137.981C137.73 138.308 137.154 138.465 136.591 138.465C135.191 138.465 134.393 137.693 134.393 136.293V132.484H133.215V131.451H134.393V129.932H135.649V131.451H137.638V132.484H135.649V136.24C135.649 136.986 136.042 137.405 136.735 137.405C137.102 137.405 137.455 137.287 137.717 137.078ZM145.667 134.958C145.667 135.063 145.654 135.22 145.641 135.337H140.013C140.17 136.555 141.152 137.366 142.526 137.366C143.338 137.366 144.018 137.091 144.528 136.528L145.222 137.34C144.594 138.073 143.639 138.465 142.487 138.465C140.249 138.465 138.757 136.986 138.757 134.919C138.757 132.864 140.236 131.385 142.238 131.385C144.241 131.385 145.667 132.825 145.667 134.958ZM142.238 132.445C141.034 132.445 140.144 133.257 140.013 134.434H144.463C144.332 133.27 143.455 132.445 142.238 132.445ZM152.699 128.676H153.955V138.387H152.751V137.287C152.188 138.073 151.298 138.465 150.278 138.465C148.249 138.465 146.77 137.039 146.77 134.919C146.77 132.799 148.249 131.385 150.278 131.385C151.259 131.385 152.123 131.752 152.699 132.498V128.676ZM150.382 137.366C151.704 137.366 152.712 136.397 152.712 134.919C152.712 133.44 151.704 132.484 150.382 132.484C149.047 132.484 148.04 133.44 148.04 134.919C148.04 136.397 149.047 137.366 150.382 137.366Z" fill="#838588"/>
<g clip-path="url(#clip1_999_3197)">
<path fill-rule="evenodd" clip-rule="evenodd" d="M244.299 137.436C244.299 137.653 244.213 137.861 244.059 138.014C243.906 138.167 243.698 138.253 243.481 138.253L236.541 138.253C236.324 138.253 236.116 138.167 235.962 138.014C235.809 137.861 235.723 137.653 235.723 137.436L235.723 130.495C235.727 130.281 235.814 130.076 235.967 129.926C236.12 129.776 236.326 129.692 236.541 129.692C236.755 129.692 236.961 129.776 237.114 129.926C237.267 130.076 237.355 130.281 237.358 130.495V135.461L244.059 128.76C244.213 128.607 244.421 128.521 244.638 128.521C244.855 128.521 245.063 128.607 245.216 128.76C245.37 128.914 245.456 129.122 245.456 129.338C245.456 129.555 245.37 129.763 245.216 129.917L238.515 136.618L243.481 136.618C243.698 136.618 243.906 136.704 244.059 136.857C244.213 137.011 244.299 137.219 244.299 137.436Z" fill="#DE493B"/>
</g>
<path d="M253.881 135.337V134.251H257.401V135.337H253.881ZM260.347 137.248H265.046V138.387H258.463V137.497L262.193 133.898C263.161 132.956 263.344 132.38 263.344 131.804C263.344 130.862 262.677 130.286 261.394 130.286C260.413 130.286 259.614 130.6 259.052 131.28L258.162 130.508C258.868 129.631 260.086 129.121 261.512 129.121C263.423 129.121 264.653 130.103 264.653 131.673C264.653 132.563 264.391 133.361 263.148 134.552L260.347 137.248ZM267.113 138.465C266.629 138.465 266.223 138.086 266.223 137.562C266.223 137.039 266.629 136.672 267.113 136.672C267.584 136.672 267.977 137.039 267.977 137.562C267.977 138.086 267.584 138.465 267.113 138.465ZM272.804 138.491C270.658 138.491 269.061 136.79 269.061 133.806C269.061 130.822 270.658 129.121 272.804 129.121C274.937 129.121 276.534 130.822 276.534 133.806C276.534 136.79 274.937 138.491 272.804 138.491ZM272.804 137.327C274.23 137.327 275.225 136.149 275.225 133.806C275.225 131.464 274.23 130.286 272.804 130.286C271.364 130.286 270.37 131.464 270.37 133.806C270.37 136.149 271.364 137.327 272.804 137.327ZM283.391 133.584C284.438 133.989 285.014 134.749 285.014 135.795C285.014 137.458 283.601 138.491 281.363 138.491C279.138 138.491 277.738 137.458 277.738 135.795C277.738 134.749 278.313 133.976 279.347 133.584C278.51 133.191 278.065 132.511 278.065 131.608C278.065 130.076 279.387 129.121 281.363 129.121C283.352 129.121 284.687 130.076 284.687 131.608C284.687 132.511 284.229 133.191 283.391 133.584ZM281.363 130.181C280.133 130.181 279.36 130.744 279.36 131.66C279.36 132.563 280.106 133.126 281.363 133.126C282.632 133.126 283.404 132.563 283.404 131.66C283.404 130.744 282.593 130.181 281.363 130.181ZM281.363 137.431C282.815 137.431 283.705 136.79 283.705 135.756C283.705 134.749 282.815 134.12 281.363 134.12C279.91 134.12 279.046 134.749 279.046 135.756C279.046 136.79 279.91 137.431 281.363 137.431ZM288.074 134.147C286.804 134.147 285.94 133.139 285.94 131.647C285.94 130.155 286.804 129.147 288.074 129.147C289.343 129.147 290.194 130.142 290.194 131.647C290.194 133.152 289.343 134.147 288.074 134.147ZM287.341 138.387L293.596 129.226H294.604L288.348 138.387H287.341ZM288.074 133.401C288.872 133.401 289.356 132.746 289.356 131.647C289.356 130.548 288.872 129.893 288.074 129.893C287.288 129.893 286.791 130.561 286.791 131.647C286.791 132.733 287.288 133.401 288.074 133.401ZM293.871 138.465C292.602 138.465 291.751 137.458 291.751 135.966C291.751 134.474 292.602 133.466 293.871 133.466C295.141 133.466 296.004 134.474 296.004 135.966C296.004 137.458 295.141 138.465 293.871 138.465ZM293.871 137.719C294.656 137.719 295.154 137.052 295.154 135.966C295.154 134.879 294.656 134.212 293.871 134.212C293.073 134.212 292.589 134.866 292.589 135.966C292.589 137.065 293.073 137.719 293.871 137.719Z" fill="#DE493B"/>
<path d="M110.326 172.3C108.926 172.3 107.552 171.829 106.819 171.148L107.303 170.128C107.984 170.743 109.148 171.188 110.326 171.188C111.91 171.188 112.59 170.573 112.59 169.774C112.59 167.536 107.041 168.95 107.041 165.547C107.041 164.134 108.141 162.93 110.549 162.93C111.622 162.93 112.734 163.218 113.493 163.741L113.061 164.788C112.263 164.278 111.36 164.042 110.549 164.042C108.991 164.042 108.324 164.696 108.324 165.495C108.324 167.733 113.873 166.332 113.873 169.696C113.873 171.096 112.747 172.3 110.326 172.3ZM120.81 165.259H122.066V172.195H120.875V171.148C120.365 171.868 119.501 172.274 118.52 172.274C116.727 172.274 115.536 171.292 115.536 169.251V165.259H116.792V169.107C116.792 170.468 117.473 171.148 118.664 171.148C119.972 171.148 120.81 170.337 120.81 168.845V165.259ZM125.662 166.424C126.107 165.613 126.971 165.194 128.188 165.194V166.411C128.083 166.398 127.992 166.398 127.9 166.398C126.552 166.398 125.715 167.222 125.715 168.74V172.195H124.458V165.259H125.662V166.424ZM133.414 165.194C135.442 165.194 136.921 166.607 136.921 168.727C136.921 170.86 135.442 172.274 133.414 172.274C132.432 172.274 131.569 171.894 130.993 171.148V174.734H129.736V165.259H130.94V166.358C131.503 165.586 132.393 165.194 133.414 165.194ZM133.309 171.175C134.644 171.175 135.652 170.206 135.652 168.727C135.652 167.262 134.644 166.293 133.309 166.293C131.987 166.293 130.98 167.262 130.98 168.727C130.98 170.206 131.987 171.175 133.309 171.175ZM139.861 166.424C140.306 165.613 141.17 165.194 142.387 165.194V166.411C142.282 166.398 142.191 166.398 142.099 166.398C140.751 166.398 139.913 167.222 139.913 168.74V172.195H138.657V165.259H139.861V166.424ZM144.564 163.924C144.079 163.924 143.713 163.571 143.713 163.113C143.713 162.655 144.079 162.288 144.564 162.288C145.048 162.288 145.414 162.642 145.414 163.087C145.414 163.558 145.061 163.924 144.564 163.924ZM143.935 172.195V165.259H145.192V172.195H143.935ZM149.58 172.274C148.428 172.274 147.29 171.92 146.714 171.462L147.237 170.468C147.826 170.887 148.768 171.188 149.671 171.188C150.836 171.188 151.32 170.834 151.32 170.245C151.32 168.688 146.936 170.036 146.936 167.275C146.936 166.031 148.049 165.194 149.828 165.194C150.731 165.194 151.752 165.429 152.354 165.822L151.818 166.817C151.189 166.411 150.496 166.267 149.815 166.267C148.716 166.267 148.179 166.673 148.179 167.222C148.179 168.858 152.577 167.523 152.577 170.219C152.577 171.476 151.425 172.274 149.58 172.274ZM160.416 168.767C160.416 168.871 160.402 169.028 160.389 169.146H154.762C154.919 170.363 155.9 171.175 157.275 171.175C158.086 171.175 158.767 170.9 159.277 170.337L159.971 171.148C159.342 171.881 158.387 172.274 157.235 172.274C154.997 172.274 153.506 170.795 153.506 168.727C153.506 166.673 154.984 165.194 156.987 165.194C158.989 165.194 160.416 166.633 160.416 168.767ZM156.987 166.254C155.783 166.254 154.893 167.065 154.762 168.243H159.212C159.081 167.078 158.204 166.254 156.987 166.254ZM167.447 162.485H168.704V172.195H167.5V171.096C166.937 171.881 166.047 172.274 165.026 172.274C162.998 172.274 161.519 170.847 161.519 168.727C161.519 166.607 162.998 165.194 165.026 165.194C166.008 165.194 166.871 165.56 167.447 166.306V162.485ZM165.131 171.175C166.453 171.175 167.46 170.206 167.46 168.727C167.46 167.248 166.453 166.293 165.131 166.293C163.796 166.293 162.788 167.248 162.788 168.727C162.788 170.206 163.796 171.175 165.131 171.175Z" fill="#838588"/>
<g clip-path="url(#clip2_999_3197)">
<path fill-rule="evenodd" clip-rule="evenodd" d="M237.264 163.145C237.264 162.928 237.35 162.72 237.503 162.567C237.657 162.414 237.865 162.328 238.081 162.328L245.022 162.328C245.239 162.328 245.447 162.414 245.6 162.567C245.753 162.72 245.84 162.928 245.84 163.145L245.84 170.086C245.836 170.3 245.748 170.505 245.595 170.655C245.442 170.805 245.236 170.89 245.022 170.89C244.807 170.89 244.602 170.805 244.449 170.655C244.296 170.505 244.208 170.3 244.204 170.086V165.12L237.503 171.821C237.35 171.974 237.142 172.061 236.925 172.061C236.708 172.061 236.5 171.974 236.346 171.821C236.193 171.668 236.107 171.459 236.107 171.243C236.107 171.026 236.193 170.818 236.346 170.664L243.047 163.963L238.081 163.963C237.865 163.963 237.657 163.877 237.503 163.724C237.35 163.57 237.264 163.362 237.264 163.145Z" fill="#3AB47A"/>
</g>
<path d="M254.257 169.146V168.06H257.778V169.146H254.257ZM262.982 172.3C260.835 172.3 259.239 170.599 259.239 167.615C259.239 164.631 260.835 162.93 262.982 162.93C265.115 162.93 266.711 164.631 266.711 167.615C266.711 170.599 265.115 172.3 262.982 172.3ZM262.982 171.135C264.408 171.135 265.403 169.957 265.403 167.615C265.403 165.272 264.408 164.094 262.982 164.094C261.542 164.094 260.547 165.272 260.547 167.615C260.547 169.957 261.542 171.135 262.982 171.135ZM268.678 172.274C268.194 172.274 267.788 171.894 267.788 171.371C267.788 170.847 268.194 170.481 268.678 170.481C269.149 170.481 269.542 170.847 269.542 171.371C269.542 171.894 269.149 172.274 268.678 172.274ZM270.09 163.034H273.453V172.195H272.157V164.173H270.09V163.034ZM274.933 163.034H278.297V172.195H277.001V164.173H274.933V163.034ZM282.29 167.955C281.02 167.955 280.157 166.947 280.157 165.455C280.157 163.964 281.02 162.956 282.29 162.956C283.559 162.956 284.41 163.95 284.41 165.455C284.41 166.96 283.559 167.955 282.29 167.955ZM281.557 172.195L287.813 163.034H288.82L282.565 172.195H281.557ZM282.29 167.209C283.088 167.209 283.572 166.555 283.572 165.455C283.572 164.356 283.088 163.702 282.29 163.702C281.505 163.702 281.007 164.369 281.007 165.455C281.007 166.542 281.505 167.209 282.29 167.209ZM288.087 172.274C286.818 172.274 285.967 171.266 285.967 169.774C285.967 168.282 286.818 167.275 288.087 167.275C289.357 167.275 290.221 168.282 290.221 169.774C290.221 171.266 289.357 172.274 288.087 172.274ZM288.087 171.528C288.873 171.528 289.37 170.86 289.37 169.774C289.37 168.688 288.873 168.021 288.087 168.021C287.289 168.021 286.805 168.675 286.805 169.774C286.805 170.874 287.289 171.528 288.087 171.528Z" fill="#3AB47A"/>
<path d="M114.226 196.842H115.535V206.003H114.226V201.92H108.965V206.003H107.656V196.842H108.965V200.781H114.226V196.842ZM120.619 199.001C122.517 199.001 123.59 199.917 123.59 201.815V206.003H122.399V205.087C121.98 205.715 121.208 206.081 120.122 206.081C118.552 206.081 117.557 205.244 117.557 204.04C117.557 202.927 118.277 202.011 120.345 202.011H122.334V201.763C122.334 200.703 121.719 200.088 120.475 200.088C119.651 200.088 118.813 200.376 118.277 200.834L117.753 199.891C118.473 199.315 119.507 199.001 120.619 199.001ZM120.331 205.113C121.274 205.113 122.02 204.681 122.334 203.883V202.914H120.397C119.154 202.914 118.8 203.399 118.8 203.988C118.8 204.681 119.376 205.113 120.331 205.113ZM129.593 199.001C131.621 199.001 133.1 200.415 133.1 202.535C133.1 204.668 131.621 206.081 129.593 206.081C128.611 206.081 127.747 205.702 127.171 204.956V208.542H125.915V199.067H127.119V200.166C127.682 199.394 128.572 199.001 129.593 199.001ZM129.488 204.982C130.823 204.982 131.83 204.014 131.83 202.535C131.83 201.069 130.823 200.101 129.488 200.101C128.166 200.101 127.158 201.069 127.158 202.535C127.158 204.014 128.166 204.982 129.488 204.982ZM138.513 199.001C140.542 199.001 142.021 200.415 142.021 202.535C142.021 204.668 140.542 206.081 138.513 206.081C137.532 206.081 136.668 205.702 136.092 204.956V208.542H134.836V199.067H136.04V200.166C136.603 199.394 137.492 199.001 138.513 199.001ZM138.409 204.982C139.743 204.982 140.751 204.014 140.751 202.535C140.751 201.069 139.743 200.101 138.409 200.101C137.087 200.101 136.079 201.069 136.079 202.535C136.079 204.014 137.087 204.982 138.409 204.982ZM148.472 199.067H149.703L146.339 206.697C145.724 208.162 144.926 208.62 143.866 208.62C143.198 208.62 142.518 208.398 142.086 207.979L142.622 207.037C142.963 207.364 143.395 207.547 143.866 207.547C144.468 207.547 144.847 207.272 145.188 206.474L145.41 205.99L142.348 199.067H143.656L146.077 204.616L148.472 199.067Z" fill="#838588"/>
<g clip-path="url(#clip3_999_3197)">
<path fill-rule="evenodd" clip-rule="evenodd" d="M244.675 205.052C244.675 205.269 244.589 205.477 244.436 205.63C244.282 205.784 244.074 205.87 243.858 205.87L236.917 205.87C236.7 205.87 236.492 205.784 236.339 205.63C236.185 205.477 236.099 205.269 236.099 205.052L236.099 198.111C236.103 197.897 236.191 197.693 236.344 197.542C236.497 197.392 236.703 197.308 236.917 197.308C237.132 197.308 237.337 197.392 237.49 197.542C237.643 197.693 237.731 197.897 237.735 198.111V203.077L244.436 196.376C244.589 196.223 244.797 196.137 245.014 196.137C245.231 196.137 245.439 196.223 245.593 196.376C245.746 196.53 245.832 196.738 245.832 196.955C245.832 197.172 245.746 197.38 245.593 197.533L238.892 204.234L243.858 204.234C244.074 204.234 244.282 204.32 244.436 204.474C244.589 204.627 244.675 204.835 244.675 205.052Z" fill="#DE493B"/>
</g>
<path d="M254.257 202.954V201.867H257.778V202.954H254.257ZM258.786 196.842H265.696V197.732L261.992 206.003H260.605L264.23 197.981H260.042V199.616H258.786V196.842ZM267.029 206.081C266.545 206.081 266.14 205.702 266.14 205.178C266.14 204.655 266.545 204.289 267.029 204.289C267.501 204.289 267.893 204.655 267.893 205.178C267.893 205.702 267.501 206.081 267.029 206.081ZM268.441 196.842H271.804V206.003H270.509V197.981H268.441V196.842ZM273.285 196.842H276.648V206.003H275.353V197.981H273.285V196.842ZM280.641 201.763C279.372 201.763 278.508 200.755 278.508 199.263C278.508 197.771 279.372 196.763 280.641 196.763C281.911 196.763 282.761 197.758 282.761 199.263C282.761 200.768 281.911 201.763 280.641 201.763ZM279.908 206.003L286.164 196.842H287.172L280.916 206.003H279.908ZM280.641 201.017C281.44 201.017 281.924 200.362 281.924 199.263C281.924 198.164 281.44 197.509 280.641 197.509C279.856 197.509 279.359 198.177 279.359 199.263C279.359 200.349 279.856 201.017 280.641 201.017ZM286.439 206.081C285.169 206.081 284.319 205.074 284.319 203.582C284.319 202.09 285.169 201.082 286.439 201.082C287.708 201.082 288.572 202.09 288.572 203.582C288.572 205.074 287.708 206.081 286.439 206.081ZM286.439 205.335C287.224 205.335 287.721 204.668 287.721 203.582C287.721 202.496 287.224 201.828 286.439 201.828C285.641 201.828 285.156 202.483 285.156 203.582C285.156 204.681 285.641 205.335 286.439 205.335Z" fill="#DE493B"/>
<path d="M399.331 138.491C397.931 138.491 396.557 138.02 395.824 137.34L396.308 136.319C396.989 136.934 398.154 137.379 399.331 137.379C400.915 137.379 401.596 136.764 401.596 135.966C401.596 133.728 396.047 135.141 396.047 131.739C396.047 130.325 397.146 129.121 399.554 129.121C400.627 129.121 401.74 129.409 402.499 129.932L402.067 130.979C401.268 130.469 400.365 130.233 399.554 130.233C397.997 130.233 397.329 130.888 397.329 131.686C397.329 133.924 402.878 132.524 402.878 135.887C402.878 137.287 401.753 138.491 399.331 138.491ZM407.133 131.385C409.03 131.385 410.103 132.301 410.103 134.199V138.387H408.912V137.471C408.494 138.099 407.722 138.465 406.635 138.465C405.065 138.465 404.07 137.628 404.07 136.424C404.07 135.311 404.79 134.395 406.858 134.395H408.847V134.147C408.847 133.086 408.232 132.471 406.989 132.471C406.164 132.471 405.327 132.759 404.79 133.217L404.267 132.275C404.986 131.699 406.02 131.385 407.133 131.385ZM406.845 137.497C407.787 137.497 408.533 137.065 408.847 136.267V135.298H406.91C405.667 135.298 405.313 135.782 405.313 136.371C405.313 137.065 405.889 137.497 406.845 137.497ZM417.754 128.676H419.01V138.387H417.806V137.287C417.243 138.073 416.354 138.465 415.333 138.465C413.304 138.465 411.825 137.039 411.825 134.919C411.825 132.799 413.304 131.385 415.333 131.385C416.314 131.385 417.178 131.752 417.754 132.498V128.676ZM415.437 137.366C416.759 137.366 417.767 136.397 417.767 134.919C417.767 133.44 416.759 132.484 415.437 132.484C414.103 132.484 413.095 133.44 413.095 134.919C413.095 136.397 414.103 137.366 415.437 137.366Z" fill="#838588"/>
<g clip-path="url(#clip4_999_3197)">
<path fill-rule="evenodd" clip-rule="evenodd" d="M526.269 129.336C526.269 129.119 526.355 128.911 526.509 128.758C526.662 128.604 526.87 128.518 527.087 128.518L534.027 128.518C534.244 128.518 534.452 128.604 534.605 128.758C534.759 128.911 534.845 129.119 534.845 129.336L534.845 136.276C534.841 136.491 534.754 136.695 534.601 136.845C534.448 136.996 534.242 137.08 534.027 137.08C533.813 137.08 533.607 136.996 533.454 136.845C533.301 136.695 533.213 136.491 533.209 136.276V131.31L526.508 138.011C526.355 138.165 526.147 138.251 525.93 138.251C525.713 138.251 525.505 138.165 525.352 138.011C525.198 137.858 525.112 137.65 525.112 137.433C525.112 137.216 525.198 137.008 525.352 136.855L532.053 130.154L527.087 130.154C526.87 130.154 526.662 130.067 526.509 129.914C526.355 129.761 526.269 129.553 526.269 129.336Z" fill="#3AB47A"/>
</g>
<path d="M546.888 138.491C544.741 138.491 543.145 136.79 543.145 133.806C543.145 130.822 544.741 129.121 546.888 129.121C549.021 129.121 550.617 130.822 550.617 133.806C550.617 136.79 549.021 138.491 546.888 138.491ZM546.888 137.327C548.314 137.327 549.309 136.149 549.309 133.806C549.309 131.464 548.314 130.286 546.888 130.286C545.448 130.286 544.453 131.464 544.453 133.806C544.453 136.149 545.448 137.327 546.888 137.327ZM552.584 138.465C552.1 138.465 551.694 138.086 551.694 137.562C551.694 137.039 552.1 136.672 552.584 136.672C553.055 136.672 553.448 137.039 553.448 137.562C553.448 138.086 553.055 138.465 552.584 138.465ZM557.656 129.121C560.117 129.121 561.504 130.77 561.504 133.688C561.504 136.816 559.737 138.491 557.172 138.491C556.308 138.491 555.484 138.321 554.895 137.955L555.392 136.934C555.876 137.248 556.491 137.366 557.159 137.366C559.017 137.366 560.195 136.201 560.195 133.911V133.584C559.658 134.382 558.69 134.788 557.551 134.788C555.732 134.788 554.424 133.702 554.424 132.013C554.424 130.247 555.837 129.121 557.656 129.121ZM557.774 133.728C559.03 133.728 559.894 132.956 559.894 131.948C559.894 131.006 559.135 130.181 557.709 130.181C556.518 130.181 555.693 130.875 555.693 131.961C555.693 133.034 556.491 133.728 557.774 133.728ZM564.465 137.248H569.163V138.387H562.58V137.497L566.31 133.898C567.278 132.956 567.462 132.38 567.462 131.804C567.462 130.862 566.794 130.286 565.512 130.286C564.53 130.286 563.732 130.6 563.169 131.28L562.279 130.508C562.986 129.631 564.203 129.121 565.63 129.121C567.54 129.121 568.77 130.103 568.77 131.673C568.77 132.563 568.509 133.361 567.265 134.552L564.465 137.248ZM572.356 134.147C571.087 134.147 570.223 133.139 570.223 131.647C570.223 130.155 571.087 129.147 572.356 129.147C573.626 129.147 574.476 130.142 574.476 131.647C574.476 133.152 573.626 134.147 572.356 134.147ZM571.623 138.387L577.879 129.226H578.886L572.631 138.387H571.623ZM572.356 133.401C573.154 133.401 573.639 132.746 573.639 131.647C573.639 130.548 573.154 129.893 572.356 129.893C571.571 129.893 571.074 130.561 571.074 131.647C571.074 132.733 571.571 133.401 572.356 133.401ZM578.154 138.465C576.884 138.465 576.034 137.458 576.034 135.966C576.034 134.474 576.884 133.466 578.154 133.466C579.423 133.466 580.287 134.474 580.287 135.966C580.287 137.458 579.423 138.465 578.154 138.465ZM578.154 137.719C578.939 137.719 579.436 137.052 579.436 135.966C579.436 134.879 578.939 134.212 578.154 134.212C577.355 134.212 576.871 134.866 576.871 135.966C576.871 137.065 577.355 137.719 578.154 137.719Z" fill="#3AB47A"/>
<path d="M403.506 172.195L402.499 169.905H397.63L396.622 172.195H395.275L399.423 163.034H400.719L404.88 172.195H403.506ZM398.088 168.858H402.041L400.064 164.369L398.088 168.858ZM409.767 165.194C411.456 165.194 412.647 166.162 412.647 168.204V172.195H411.39V168.348C411.39 166.987 410.71 166.319 409.519 166.319C408.184 166.319 407.32 167.118 407.32 168.623V172.195H406.064V165.259H407.268V166.306C407.778 165.599 408.668 165.194 409.767 165.194ZM420.454 165.259H421.645V171.253C421.645 173.7 420.402 174.813 418.046 174.813C416.777 174.813 415.494 174.459 414.735 173.779L415.337 172.81C415.978 173.36 416.986 173.713 418.007 173.713C419.643 173.713 420.389 172.954 420.389 171.384V170.834C419.787 171.554 418.884 171.907 417.889 171.907C415.887 171.907 414.369 170.546 414.369 168.544C414.369 166.542 415.887 165.194 417.889 165.194C418.923 165.194 419.865 165.573 420.454 166.332V165.259ZM418.033 170.808C419.42 170.808 420.415 169.879 420.415 168.544C420.415 167.196 419.42 166.293 418.033 166.293C416.633 166.293 415.638 167.196 415.638 168.544C415.638 169.879 416.633 170.808 418.033 170.808ZM425.25 166.424C425.695 165.613 426.558 165.194 427.775 165.194V166.411C427.671 166.398 427.579 166.398 427.488 166.398C426.14 166.398 425.302 167.222 425.302 168.74V172.195H424.046V165.259H425.25V166.424ZM434.513 165.259H435.743L432.38 172.889C431.764 174.355 430.966 174.813 429.906 174.813C429.239 174.813 428.558 174.59 428.126 174.171L428.663 173.229C429.003 173.556 429.435 173.74 429.906 173.74C430.508 173.74 430.888 173.465 431.228 172.666L431.45 172.182L428.388 165.259H429.697L432.118 170.808L434.513 165.259Z" fill="#838588"/>
<g clip-path="url(#clip5_999_3197)">
<path fill-rule="evenodd" clip-rule="evenodd" d="M526.269 163.145C526.269 162.928 526.355 162.72 526.509 162.567C526.662 162.414 526.87 162.328 527.087 162.328L534.027 162.328C534.244 162.328 534.452 162.414 534.605 162.567C534.759 162.72 534.845 162.928 534.845 163.145L534.845 170.086C534.841 170.3 534.754 170.505 534.601 170.655C534.448 170.805 534.242 170.89 534.027 170.89C533.813 170.89 533.607 170.805 533.454 170.655C533.301 170.505 533.213 170.3 533.209 170.086V165.12L526.508 171.821C526.355 171.974 526.147 172.061 525.93 172.061C525.713 172.061 525.505 171.974 525.352 171.821C525.198 171.668 525.112 171.459 525.112 171.243C525.112 171.026 525.198 170.818 525.352 170.664L532.053 163.963L527.087 163.963C526.87 163.963 526.662 163.877 526.509 163.724C526.355 163.57 526.269 163.362 526.269 163.145Z" fill="#3AB47A"/>
</g>
<path d="M544.885 171.057H549.584V172.195H543.001V171.305L546.731 167.706C547.699 166.764 547.882 166.188 547.882 165.613C547.882 164.67 547.215 164.094 545.932 164.094C544.951 164.094 544.152 164.409 543.59 165.089L542.7 164.317C543.407 163.44 544.624 162.93 546.05 162.93C547.961 162.93 549.191 163.911 549.191 165.482C549.191 166.372 548.929 167.17 547.686 168.361L544.885 171.057ZM551.651 172.274C551.167 172.274 550.761 171.894 550.761 171.371C550.761 170.847 551.167 170.481 551.651 170.481C552.122 170.481 552.515 170.847 552.515 171.371C552.515 171.894 552.122 172.274 551.651 172.274ZM557.342 172.3C555.196 172.3 553.599 170.599 553.599 167.615C553.599 164.631 555.196 162.93 557.342 162.93C559.475 162.93 561.072 164.631 561.072 167.615C561.072 170.599 559.475 172.3 557.342 172.3ZM557.342 171.135C558.768 171.135 559.763 169.957 559.763 167.615C559.763 165.272 558.768 164.094 557.342 164.094C555.902 164.094 554.908 165.272 554.908 167.615C554.908 169.957 555.902 171.135 557.342 171.135ZM564.03 171.057H568.728V172.195H562.146V171.305L565.876 167.706C566.844 166.764 567.027 166.188 567.027 165.613C567.027 164.67 566.36 164.094 565.077 164.094C564.096 164.094 563.297 164.409 562.735 165.089L561.845 164.317C562.551 163.44 563.769 162.93 565.195 162.93C567.106 162.93 568.336 163.911 568.336 165.482C568.336 166.372 568.074 167.17 566.831 168.361L564.03 171.057ZM571.922 167.955C570.652 167.955 569.788 166.947 569.788 165.455C569.788 163.964 570.652 162.956 571.922 162.956C573.191 162.956 574.042 163.95 574.042 165.455C574.042 166.96 573.191 167.955 571.922 167.955ZM571.189 172.195L577.444 163.034H578.452L572.196 172.195H571.189ZM571.922 167.209C572.72 167.209 573.204 166.555 573.204 165.455C573.204 164.356 572.72 163.702 571.922 163.702C571.136 163.702 570.639 164.369 570.639 165.455C570.639 166.542 571.136 167.209 571.922 167.209ZM577.719 172.274C576.45 172.274 575.599 171.266 575.599 169.774C575.599 168.282 576.45 167.275 577.719 167.275C578.989 167.275 579.852 168.282 579.852 169.774C579.852 171.266 578.989 172.274 577.719 172.274ZM577.719 171.528C578.504 171.528 579.002 170.86 579.002 169.774C579.002 168.688 578.504 168.021 577.719 168.021C576.921 168.021 576.437 168.675 576.437 169.774C576.437 170.874 576.921 171.528 577.719 171.528Z" fill="#3AB47A"/>
<path d="M399.331 206.108C397.931 206.108 396.557 205.636 395.824 204.956L396.308 203.935C396.989 204.55 398.154 204.995 399.331 204.995C400.915 204.995 401.596 204.38 401.596 203.582C401.596 201.344 396.047 202.757 396.047 199.355C396.047 197.941 397.146 196.737 399.554 196.737C400.627 196.737 401.74 197.025 402.499 197.549L402.067 198.596C401.268 198.085 400.365 197.85 399.554 197.85C397.997 197.85 397.329 198.504 397.329 199.302C397.329 201.54 402.878 200.14 402.878 203.503C402.878 204.904 401.753 206.108 399.331 206.108ZM407.63 206.081C405.497 206.081 403.966 204.603 403.966 202.535C403.966 200.467 405.497 199.001 407.63 199.001C408.873 199.001 409.907 199.512 410.457 200.48L409.501 201.095C409.056 200.415 408.376 200.101 407.617 200.101C406.256 200.101 405.235 201.056 405.235 202.535C405.235 204.04 406.256 204.982 407.617 204.982C408.376 204.982 409.056 204.668 409.501 203.988L410.457 204.59C409.907 205.558 408.873 206.081 407.63 206.081ZM414.609 199.001C416.507 199.001 417.58 199.917 417.58 201.815V206.003H416.389V205.087C415.97 205.715 415.198 206.081 414.112 206.081C412.541 206.081 411.547 205.244 411.547 204.04C411.547 202.927 412.266 202.011 414.334 202.011H416.323V201.763C416.323 200.703 415.708 200.088 414.465 200.088C413.641 200.088 412.803 200.376 412.266 200.834L411.743 199.891C412.463 199.315 413.497 199.001 414.609 199.001ZM414.321 205.113C415.263 205.113 416.009 204.681 416.323 203.883V202.914H414.387C413.143 202.914 412.79 203.399 412.79 203.988C412.79 204.681 413.366 205.113 414.321 205.113ZM421.109 200.232C421.554 199.42 422.418 199.001 423.635 199.001V200.218C423.53 200.205 423.438 200.205 423.347 200.205C421.999 200.205 421.161 201.03 421.161 202.548V206.003H419.905V199.067H421.109V200.232ZM431.388 202.574C431.388 202.679 431.375 202.836 431.362 202.954H425.734C425.891 204.171 426.873 204.982 428.247 204.982C429.058 204.982 429.739 204.707 430.249 204.145L430.943 204.956C430.315 205.689 429.359 206.081 428.208 206.081C425.97 206.081 424.478 204.603 424.478 202.535C424.478 200.48 425.957 199.001 427.959 199.001C429.961 199.001 431.388 200.441 431.388 202.574ZM427.959 200.061C426.755 200.061 425.865 200.873 425.734 202.051H430.184C430.053 200.886 429.176 200.061 427.959 200.061ZM438.42 196.292H439.676V206.003H438.472V204.904C437.909 205.689 437.019 206.081 435.998 206.081C433.97 206.081 432.491 204.655 432.491 202.535C432.491 200.415 433.97 199.001 435.998 199.001C436.98 199.001 437.844 199.368 438.42 200.114V196.292ZM436.103 204.982C437.425 204.982 438.433 204.014 438.433 202.535C438.433 201.056 437.425 200.101 436.103 200.101C434.768 200.101 433.761 201.056 433.761 202.535C433.761 204.014 434.768 204.982 436.103 204.982Z" fill="#838588"/>
<g clip-path="url(#clip6_999_3197)">
<path fill-rule="evenodd" clip-rule="evenodd" d="M526.269 196.953C526.269 196.736 526.355 196.528 526.509 196.375C526.662 196.221 526.87 196.135 527.087 196.135L534.027 196.135C534.244 196.135 534.452 196.221 534.605 196.375C534.759 196.528 534.845 196.736 534.845 196.953L534.845 203.893C534.841 204.108 534.754 204.312 534.601 204.463C534.448 204.613 534.242 204.697 534.027 204.697C533.813 204.697 533.607 204.613 533.454 204.463C533.301 204.312 533.213 204.108 533.209 203.893V198.928L526.508 205.629C526.355 205.782 526.147 205.868 525.93 205.868C525.713 205.868 525.505 205.782 525.352 205.629C525.198 205.475 525.112 205.267 525.112 205.05C525.112 204.833 525.198 204.625 525.352 204.472L532.053 197.771L527.087 197.771C526.87 197.771 526.662 197.685 526.509 197.531C526.355 197.378 526.269 197.17 526.269 196.953Z" fill="#3AB47A"/>
</g>
<path d="M542.621 196.842H545.985V206.003H544.689V197.981H542.621V196.842ZM548.852 206.081C548.368 206.081 547.962 205.702 547.962 205.178C547.962 204.655 548.368 204.289 548.852 204.289C549.323 204.289 549.716 204.655 549.716 205.178C549.716 205.702 549.323 206.081 548.852 206.081ZM558.809 202.626V203.752H557.068V206.003H555.799V203.752H550.708V202.836L555.393 196.842H556.806L552.317 202.626H555.838V200.637H557.068V202.626H558.809ZM558.744 196.842H565.654V197.732L561.95 206.003H560.563L564.188 197.981H560V199.616H558.744V196.842ZM568.829 201.763C567.559 201.763 566.696 200.755 566.696 199.263C566.696 197.771 567.559 196.763 568.829 196.763C570.098 196.763 570.949 197.758 570.949 199.263C570.949 200.768 570.098 201.763 568.829 201.763ZM568.096 206.003L574.351 196.842H575.359L569.104 206.003H568.096ZM568.829 201.017C569.627 201.017 570.111 200.362 570.111 199.263C570.111 198.164 569.627 197.509 568.829 197.509C568.043 197.509 567.546 198.177 567.546 199.263C567.546 200.349 568.043 201.017 568.829 201.017ZM574.626 206.081C573.357 206.081 572.506 205.074 572.506 203.582C572.506 202.09 573.357 201.082 574.626 201.082C575.896 201.082 576.759 202.09 576.759 203.582C576.759 205.074 575.896 206.081 574.626 206.081ZM574.626 205.335C575.411 205.335 575.909 204.668 575.909 203.582C575.909 202.496 575.411 201.828 574.626 201.828C573.828 201.828 573.344 202.483 573.344 203.582C573.344 204.681 573.828 205.335 574.626 205.335Z" fill="#3AB47A"/>
<path d="M458.403 333.376L348.641 270.564L240.148 333.376V461.537L348.641 521.811L458.403 457.73V333.376ZM240.148 333.376L458.403 457.73M348.641 270.564V521.811M458.403 333.376L240.148 461.537" stroke="black" stroke-opacity="0.2" stroke-width="1.26892"/>
<path d="M348.791 300.51L266.16 348.349V445.96L348.791 491.866L432.389 443.061V348.349L348.791 300.51Z" stroke="black" stroke-opacity="0.2" stroke-width="1.26892"/>
<path d="M348.953 332.646L294.076 364.416V429.242L348.953 459.729L404.472 427.317V364.416L348.953 332.646Z" stroke="black" stroke-opacity="0.2" stroke-width="1.26892"/>
<path d="M349.117 364.782L321.994 380.485V412.525L349.117 427.594L376.558 411.574V380.485L349.117 364.782Z" stroke="black" stroke-opacity="0.2" stroke-width="1.26892"/>
<path d="M446.983 453.924L349.276 491.357L277.582 439.331L330.877 384.768L349.276 379.058L368.944 386.671L446.983 453.924Z" fill="#8784D2" fill-opacity="0.6" stroke="#8784D2" stroke-width="1.26892"/>
<path d="M426.044 351.141L349.274 504.046L326.434 410.78L332.778 384.133L349.274 335.914L426.044 351.141Z" fill="#333333" fill-opacity="0.7"/>
<path d="M318.593 254.324H325.712V255.842H316.848V243.627H325.468V245.145H318.593V248.897H324.717V250.38H318.593V254.324ZM335.889 255.842H333.987L331.317 252.3L328.612 255.842H326.745L330.392 251.113L326.92 246.594H328.787L331.334 249.926L333.864 246.594H335.697L332.207 251.113L335.889 255.842ZM341.441 255.946C338.596 255.946 336.555 253.975 336.555 251.218C336.555 248.461 338.596 246.506 341.441 246.506C343.098 246.506 344.477 247.187 345.21 248.478L343.936 249.298C343.343 248.391 342.435 247.972 341.423 247.972C339.608 247.972 338.247 249.246 338.247 251.218C338.247 253.224 339.608 254.481 341.423 254.481C342.435 254.481 343.343 254.062 343.936 253.155L345.21 253.957C344.477 255.249 343.098 255.946 341.441 255.946ZM348.216 244.814C347.57 244.814 347.082 244.343 347.082 243.732C347.082 243.121 347.57 242.633 348.216 242.633C348.862 242.633 349.35 243.104 349.35 243.697C349.35 244.325 348.879 244.814 348.216 244.814ZM347.378 255.842V246.594H349.054V255.842H347.378ZM356.928 254.097L357.452 255.301C356.946 255.737 356.178 255.946 355.428 255.946C353.561 255.946 352.496 254.917 352.496 253.05V247.972H350.926V246.594H352.496V244.569H354.171V246.594H356.824V247.972H354.171V252.98C354.171 253.975 354.695 254.533 355.62 254.533C356.108 254.533 356.58 254.376 356.928 254.097ZM367.529 251.27C367.529 251.41 367.511 251.619 367.494 251.776H359.991C360.2 253.399 361.509 254.481 363.341 254.481C364.423 254.481 365.33 254.114 366.011 253.364L366.935 254.446C366.098 255.423 364.824 255.946 363.289 255.946C360.305 255.946 358.315 253.975 358.315 251.218C358.315 248.478 360.287 246.506 362.957 246.506C365.627 246.506 367.529 248.426 367.529 251.27ZM362.957 247.92C361.352 247.92 360.165 249.002 359.991 250.572H365.923C365.749 249.019 364.58 247.92 362.957 247.92ZM376.904 242.894H378.579V255.842H376.974V254.376C376.224 255.423 375.037 255.946 373.676 255.946C370.972 255.946 369 254.045 369 251.218C369 248.391 370.972 246.506 373.676 246.506C374.985 246.506 376.137 246.995 376.904 247.99V242.894ZM373.816 254.481C375.578 254.481 376.922 253.189 376.922 251.218C376.922 249.246 375.578 247.972 373.816 247.972C372.036 247.972 370.692 249.246 370.692 251.218C370.692 253.189 372.036 254.481 373.816 254.481Z" fill="#333333" fill-opacity="0.7"/>
<path d="M332.32 548.962L330.976 545.908H324.485L323.141 548.962H321.344L326.875 536.747H328.603L334.152 548.962H332.32ZM325.095 544.512H330.365L327.73 538.527L325.095 544.512ZM340.668 539.626C342.919 539.626 344.507 540.918 344.507 543.64V548.962H342.831V543.832C342.831 542.017 341.924 541.127 340.336 541.127C338.556 541.127 337.405 542.192 337.405 544.198V548.962H335.73V539.714H337.335V541.11C338.015 540.167 339.202 539.626 340.668 539.626ZM354.917 539.714H356.505V547.706C356.505 550.969 354.847 552.452 351.706 552.452C350.013 552.452 348.303 551.981 347.291 551.073L348.094 549.782C348.949 550.515 350.293 550.986 351.654 550.986C353.835 550.986 354.83 549.974 354.83 547.88V547.147C354.027 548.107 352.823 548.578 351.497 548.578C348.827 548.578 346.803 546.763 346.803 544.094C346.803 541.424 348.827 539.626 351.497 539.626C352.875 539.626 354.132 540.133 354.917 541.145V539.714ZM351.689 547.112C353.538 547.112 354.864 545.873 354.864 544.094C354.864 542.296 353.538 541.092 351.689 541.092C349.822 541.092 348.495 542.296 348.495 544.094C348.495 545.873 349.822 547.112 351.689 547.112ZM361.311 541.267C361.904 540.185 363.056 539.626 364.678 539.626V541.249C364.539 541.232 364.417 541.232 364.295 541.232C362.497 541.232 361.381 542.331 361.381 544.355V548.962H359.705V539.714H361.311V541.267ZM373.661 539.714H375.302L370.817 549.887C369.997 551.841 368.933 552.452 367.519 552.452C366.629 552.452 365.722 552.155 365.146 551.597L365.862 550.34C366.315 550.777 366.891 551.021 367.519 551.021C368.322 551.021 368.828 550.655 369.282 549.59L369.578 548.944L365.495 539.714H367.24L370.468 547.112L373.661 539.714Z" fill="#333333" fill-opacity="0.7"/>
<path d="M172.703 309.611H174.448V321.825H172.703V316.381H165.688V321.825H163.944V309.611H165.688V314.863H172.703V309.611ZM181.228 312.49C183.758 312.49 185.189 313.711 185.189 316.241V321.825H183.601V320.604C183.042 321.441 182.013 321.93 180.564 321.93C178.471 321.93 177.144 320.813 177.144 319.208C177.144 317.725 178.104 316.503 180.861 316.503H183.513V316.172C183.513 314.758 182.693 313.938 181.036 313.938C179.936 313.938 178.82 314.322 178.104 314.933L177.406 313.676C178.366 312.909 179.744 312.49 181.228 312.49ZM180.844 320.639C182.1 320.639 183.095 320.063 183.513 318.998V317.707H180.931C179.273 317.707 178.802 318.353 178.802 319.138C178.802 320.063 179.57 320.639 180.844 320.639ZM193.192 312.49C195.896 312.49 197.868 314.374 197.868 317.201C197.868 320.045 195.896 321.93 193.192 321.93C191.883 321.93 190.731 321.424 189.964 320.429V325.21H188.289V312.577H189.894V314.043C190.644 313.013 191.831 312.49 193.192 312.49ZM193.052 320.464C194.832 320.464 196.176 319.173 196.176 317.201C196.176 315.247 194.832 313.956 193.052 313.956C191.29 313.956 189.946 315.247 189.946 317.201C189.946 319.173 191.29 320.464 193.052 320.464ZM205.086 312.49C207.791 312.49 209.762 314.374 209.762 317.201C209.762 320.045 207.791 321.93 205.086 321.93C203.777 321.93 202.626 321.424 201.858 320.429V325.21H200.183V312.577H201.788V314.043C202.538 313.013 203.725 312.49 205.086 312.49ZM204.946 320.464C206.726 320.464 208.07 319.173 208.07 317.201C208.07 315.247 206.726 313.956 204.946 313.956C203.184 313.956 201.84 315.247 201.84 317.201C201.84 319.173 203.184 320.464 204.946 320.464ZM218.365 312.577H220.005L215.521 322.75C214.7 324.704 213.636 325.315 212.223 325.315C211.333 325.315 210.425 325.018 209.85 324.46L210.565 323.204C211.019 323.64 211.594 323.884 212.223 323.884C213.025 323.884 213.531 323.518 213.985 322.453L214.282 321.808L210.199 312.577H211.943L215.172 319.976L218.365 312.577Z" fill="#333333" fill-opacity="0.7"/>
<path d="M165.599 452.664C163.732 452.664 161.9 452.036 160.922 451.128L161.568 449.767C162.475 450.588 164.028 451.181 165.599 451.181C167.71 451.181 168.618 450.361 168.618 449.296C168.618 446.312 161.219 448.197 161.219 443.66C161.219 441.776 162.685 440.17 165.896 440.17C167.326 440.17 168.81 440.554 169.822 441.252L169.246 442.648C168.181 441.968 166.977 441.653 165.896 441.653C163.819 441.653 162.929 442.526 162.929 443.59C162.929 446.574 170.328 444.707 170.328 449.192C170.328 451.059 168.827 452.664 165.599 452.664ZM176.663 452.629C173.819 452.629 171.778 450.657 171.778 447.9C171.778 445.143 173.819 443.189 176.663 443.189C178.321 443.189 179.7 443.87 180.432 445.161L179.159 445.981C178.565 445.074 177.658 444.655 176.646 444.655C174.831 444.655 173.47 445.929 173.47 447.9C173.47 449.907 174.831 451.163 176.646 451.163C177.658 451.163 178.565 450.745 179.159 449.837L180.432 450.64C179.7 451.931 178.321 452.629 176.663 452.629ZM185.969 443.189C188.499 443.189 189.93 444.41 189.93 446.941V452.524H188.342V451.303C187.784 452.141 186.754 452.629 185.306 452.629C183.212 452.629 181.886 451.512 181.886 449.907C181.886 448.424 182.846 447.202 185.603 447.202H188.255V446.871C188.255 445.457 187.435 444.637 185.777 444.637C184.678 444.637 183.561 445.021 182.846 445.632L182.148 444.376C183.107 443.608 184.486 443.189 185.969 443.189ZM185.585 451.338C186.841 451.338 187.836 450.762 188.255 449.698V448.406H185.672C184.015 448.406 183.544 449.052 183.544 449.837C183.544 450.762 184.311 451.338 185.585 451.338ZM194.635 444.829C195.229 443.747 196.38 443.189 198.003 443.189V444.812C197.863 444.794 197.741 444.794 197.619 444.794C195.822 444.794 194.705 445.894 194.705 447.918V452.524H193.03V443.276H194.635V444.829ZM208.341 447.953C208.341 448.092 208.323 448.302 208.306 448.459H200.803C201.012 450.082 202.321 451.163 204.153 451.163C205.235 451.163 206.142 450.797 206.823 450.047L207.747 451.128C206.91 452.106 205.636 452.629 204.101 452.629C201.117 452.629 199.127 450.657 199.127 447.9C199.127 445.161 201.099 443.189 203.769 443.189C206.439 443.189 208.341 445.108 208.341 447.953ZM203.769 444.602C202.164 444.602 200.977 445.684 200.803 447.255H206.735C206.561 445.702 205.392 444.602 203.769 444.602ZM217.716 439.577H219.392V452.524H217.786V451.059C217.036 452.106 215.849 452.629 214.488 452.629C211.784 452.629 209.812 450.727 209.812 447.9C209.812 445.074 211.784 443.189 214.488 443.189C215.797 443.189 216.949 443.678 217.716 444.672V439.577ZM214.628 451.163C216.39 451.163 217.734 449.872 217.734 447.9C217.734 445.929 216.39 444.655 214.628 444.655C212.848 444.655 211.504 445.929 211.504 447.9C211.504 449.872 212.848 451.163 214.628 451.163Z" fill="#333333" fill-opacity="0.7"/>
<path d="M481.56 321.965C479.693 321.965 477.861 321.337 476.883 320.429L477.529 319.068C478.436 319.888 479.989 320.482 481.56 320.482C483.671 320.482 484.579 319.661 484.579 318.597C484.579 315.613 477.18 317.498 477.18 312.961C477.18 311.076 478.646 309.471 481.856 309.471C483.287 309.471 484.771 309.855 485.783 310.553L485.207 311.949C484.142 311.268 482.938 310.954 481.856 310.954C479.78 310.954 478.89 311.827 478.89 312.891C478.89 315.875 486.289 314.008 486.289 318.492C486.289 320.359 484.788 321.965 481.56 321.965ZM495.538 312.577H497.214V321.825H495.626V320.429C494.945 321.389 493.793 321.93 492.485 321.93C490.094 321.93 488.506 320.621 488.506 317.899V312.577H490.181V317.707C490.181 319.522 491.089 320.429 492.677 320.429C494.422 320.429 495.538 319.347 495.538 317.358V312.577ZM502.008 314.13C502.601 313.048 503.753 312.49 505.376 312.49V314.113C505.236 314.095 505.114 314.095 504.992 314.095C503.194 314.095 502.078 315.194 502.078 317.219V321.825H500.403V312.577H502.008V314.13ZM512.344 312.49C515.048 312.49 517.02 314.374 517.02 317.201C517.02 320.045 515.048 321.93 512.344 321.93C511.035 321.93 509.883 321.424 509.115 320.429V325.21H507.44V312.577H509.046V314.043C509.796 313.013 510.982 312.49 512.344 312.49ZM512.204 320.464C513.984 320.464 515.327 319.173 515.327 317.201C515.327 315.247 513.984 313.956 512.204 313.956C510.442 313.956 509.098 315.247 509.098 317.201C509.098 319.173 510.442 320.464 512.204 320.464ZM520.94 314.13C521.533 313.048 522.685 312.49 524.308 312.49V314.113C524.168 314.095 524.046 314.095 523.924 314.095C522.126 314.095 521.01 315.194 521.01 317.219V321.825H519.334V312.577H520.94V314.13ZM527.21 310.797C526.564 310.797 526.076 310.326 526.076 309.715C526.076 309.105 526.564 308.616 527.21 308.616C527.855 308.616 528.344 309.087 528.344 309.68C528.344 310.309 527.873 310.797 527.21 310.797ZM526.372 321.825V312.577H528.047V321.825H526.372ZM533.898 321.93C532.362 321.93 530.844 321.459 530.077 320.848L530.775 319.522C531.56 320.08 532.816 320.482 534.02 320.482C535.573 320.482 536.219 320.01 536.219 319.225C536.219 317.149 530.373 318.946 530.373 315.264C530.373 313.607 531.856 312.49 534.23 312.49C535.434 312.49 536.795 312.804 537.597 313.327L536.882 314.654C536.044 314.113 535.119 313.921 534.212 313.921C532.746 313.921 532.031 314.462 532.031 315.194C532.031 317.376 537.894 315.596 537.894 319.19C537.894 320.865 536.358 321.93 533.898 321.93ZM548.346 317.253C548.346 317.393 548.328 317.602 548.311 317.759H540.808C541.017 319.382 542.326 320.464 544.158 320.464C545.24 320.464 546.147 320.098 546.828 319.347L547.752 320.429C546.915 321.406 545.641 321.93 544.105 321.93C541.122 321.93 539.132 319.958 539.132 317.201C539.132 314.462 541.104 312.49 543.774 312.49C546.444 312.49 548.346 314.409 548.346 317.253ZM543.774 313.903C542.169 313.903 540.982 314.985 540.808 316.555H546.74C546.566 315.002 545.397 313.903 543.774 313.903ZM557.721 308.878H559.396V321.825H557.791V320.359C557.041 321.406 555.854 321.93 554.493 321.93C551.789 321.93 549.817 320.028 549.817 317.201C549.817 314.374 551.789 312.49 554.493 312.49C555.802 312.49 556.954 312.978 557.721 313.973V308.878ZM554.633 320.464C556.395 320.464 557.739 319.173 557.739 317.201C557.739 315.229 556.395 313.956 554.633 313.956C552.853 313.956 551.509 315.229 551.509 317.201C551.509 319.173 552.853 320.464 554.633 320.464Z" fill="#333333" fill-opacity="0.7"/>
<path d="M481.56 452.664C479.693 452.664 477.861 452.036 476.883 451.128L477.529 449.767C478.436 450.588 479.989 451.181 481.56 451.181C483.671 451.181 484.579 450.361 484.579 449.296C484.579 446.312 477.18 448.197 477.18 443.66C477.18 441.776 478.646 440.17 481.856 440.17C483.287 440.17 484.771 440.554 485.783 441.252L485.207 442.648C484.142 441.968 482.938 441.653 481.856 441.653C479.78 441.653 478.89 442.526 478.89 443.59C478.89 446.574 486.289 444.707 486.289 449.192C486.289 451.059 484.788 452.664 481.56 452.664ZM491.961 443.189C494.491 443.189 495.922 444.41 495.922 446.941V452.524H494.334V451.303C493.776 452.141 492.747 452.629 491.298 452.629C489.204 452.629 487.878 451.512 487.878 449.907C487.878 448.424 488.838 447.202 491.595 447.202H494.247V446.871C494.247 445.457 493.427 444.637 491.769 444.637C490.67 444.637 489.553 445.021 488.838 445.632L488.14 444.376C489.1 443.608 490.478 443.189 491.961 443.189ZM491.577 451.338C492.834 451.338 493.828 450.762 494.247 449.698V448.406H491.665C490.007 448.406 489.536 449.052 489.536 449.837C489.536 450.762 490.304 451.338 491.577 451.338ZM506.123 439.577H507.798V452.524H506.193V451.059C505.442 452.106 504.256 452.629 502.895 452.629C500.19 452.629 498.218 450.727 498.218 447.9C498.218 445.074 500.19 443.189 502.895 443.189C504.204 443.189 505.355 443.678 506.123 444.672V439.577ZM503.034 451.163C504.797 451.163 506.14 449.872 506.14 447.9C506.14 445.929 504.797 444.655 503.034 444.655C501.255 444.655 499.911 445.929 499.911 447.9C499.911 449.872 501.255 451.163 503.034 451.163Z" fill="#333333" fill-opacity="0.7"/>
</g>
</g>
<defs>
<filter id="filter0_d_999_3197" x="0.000219345" y="0.000339031" width="698.324" height="640.324" filterUnits="userSpaceOnUse" color-interpolation-filters="sRGB">
<feFlood flood-opacity="0" result="BackgroundImageFix"/>
<feColorMatrix in="SourceAlpha" type="matrix" values="0 0 0 0 0 0 0 0 0 0 0 0 0 0 0 0 0 0 127 0" result="hardAlpha"/>
<feOffset dx="-12.6486" dy="4.21622"/>
<feGaussianBlur stdDeviation="21.0811"/>
<feComposite in2="hardAlpha" operator="out"/>
<feColorMatrix type="matrix" values="0 0 0 0 0 0 0 0 0 0 0 0 0 0 0 0 0 0 0.1 0"/>
<feBlend mode="normal" in2="BackgroundImageFix" result="effect1_dropShadow_999_3197"/>
<feBlend mode="normal" in="SourceGraphic" in2="effect1_dropShadow_999_3197" result="shape"/>
</filter>
<clipPath id="clip0_999_3197">
<rect x="54.811" y="37.9463" width="614" height="556" rx="8.72469" fill="white"/>
</clipPath>
<clipPath id="clip1_999_3197">
<rect width="16.3588" height="16.3588" fill="white" transform="matrix(-1 0 0 -1 248.772 141.565)"/>
</clipPath>
<clipPath id="clip2_999_3197">
<rect width="16.3588" height="16.3588" fill="white" transform="translate(232.79 159.016)"/>
</clipPath>
<clipPath id="clip3_999_3197">
<rect width="16.3588" height="16.3588" fill="white" transform="matrix(-1 0 0 -1 249.149 209.182)"/>
</clipPath>
<clipPath id="clip4_999_3197">
<rect width="16.3588" height="16.3588" fill="white" transform="translate(521.795 125.207)"/>
</clipPath>
<clipPath id="clip5_999_3197">
<rect width="16.3588" height="16.3588" fill="white" transform="translate(521.795 159.016)"/>
</clipPath>
<clipPath id="clip6_999_3197">
<rect width="16.3588" height="16.3588" fill="white" transform="translate(521.795 192.823)"/>
</clipPath>
</defs>
</svg>
