<svg width="40" height="40" viewBox="0 0 40 40" fill="none" xmlns="http://www.w3.org/2000/svg">
<path d="M36.6504 12.2748C36.501 15.5101 34.2352 19.9411 29.8528 25.5666C25.3211 31.44 21.4856 34.378 18.3488 34.378C16.4071 34.378 14.7627 32.5864 13.4184 29.0018L10.7298 19.1453C9.73219 15.5594 8.66127 13.7678 7.51701 13.7678C7.26762 13.7678 6.39675 14.2903 4.90174 15.3354L3.33337 13.3199C4.96308 11.8882 6.58079 10.4445 8.18916 8.98879C10.3803 7.0972 12.0234 6.10141 13.1196 6.00277C15.7096 5.75349 17.3033 7.52111 17.9007 11.3043C18.5476 15.3861 18.997 17.9255 19.245 18.92C19.9919 22.3046 20.8134 23.9976 21.7096 23.9976C22.4071 23.9976 23.4527 22.9018 24.8477 20.7116C26.2427 18.5214 26.9895 16.8538 27.0882 15.7087C27.2869 13.8171 26.5401 12.8706 24.8477 12.8706C24.0515 12.8706 23.2286 13.0453 22.3831 13.3932C24.0262 8.06632 27.1642 5.47888 31.7959 5.62818C35.2314 5.72816 36.8491 7.94368 36.6504 12.2748Z" fill="#1AB7EA"/>
</svg>
