<svg width="40" height="40" viewBox="0 0 40 40" fill="none" xmlns="http://www.w3.org/2000/svg">
<path d="M20.6646 30.7249L14.5098 30.6123C12.517 30.5731 10.5192 30.6514 8.56551 30.245C5.59344 29.6379 5.38289 26.6609 5.16257 24.1637C4.85899 20.653 4.97652 17.0786 5.54941 13.5972C5.87282 11.6438 7.1456 10.4781 9.1139 10.3513C15.7584 9.89097 22.447 9.94552 29.0768 10.1603C29.777 10.18 30.482 10.2876 31.1724 10.4101C34.5804 11.0074 34.6635 14.3811 34.8844 17.221C35.1048 20.0903 35.0117 22.9743 34.5906 25.8241C34.2528 28.1836 33.6064 30.1622 30.8786 30.3532C27.4607 30.603 24.1214 30.8041 20.6939 30.7401C20.6941 30.7249 20.6744 30.7249 20.6646 30.7249ZM17.0462 24.7513C19.6218 23.2725 22.1483 21.8183 24.7091 20.3494C22.1287 18.8706 19.6071 17.4164 17.0462 15.9475V24.7513Z" fill="#FF0000"/>
</svg>
